<svg version="1.1" id="Layer_1" xmlns="http://www.w3.org/2000/svg" xmlns:xlink="http://www.w3.org/1999/xlink" x="0px" y="0px"
	 width="100%" viewBox="0 0 1920 600" enable-background="new 0 0 1920 600" xml:space="preserve">
<path fill="#000000" opacity="1.000000" stroke="none" 
	d="
M1389.000000,601.000000 
	C926.000000,601.000000 463.500000,601.000000 1.000000,601.000000 
	C1.000000,401.000000 1.000000,201.000000 1.000000,1.000000 
	C641.000000,1.000000 1281.000000,1.000000 1921.000000,1.000000 
	C1921.000000,201.000000 1921.000000,401.000000 1921.000000,601.000000 
	C1743.833374,601.000000 1566.666626,601.000000 1389.000000,601.000000 
M160.940109,134.474884 
	C134.538818,149.690109 107.810898,164.374695 81.871559,180.340469 
	C68.548660,188.540771 61.071831,201.591949 61.041386,217.793396 
	C60.936821,273.438202 60.957203,329.083405 61.030220,384.728333 
	C61.050499,400.181946 68.152191,412.766846 80.517448,420.883667 
	C99.460297,433.318268 119.469711,444.135071 139.090302,455.528534 
	C166.018387,471.165436 193.085907,486.563721 219.940140,502.325775 
	C237.596832,512.689331 255.547592,514.600159 273.732452,504.543549 
	C294.311096,493.163177 314.572815,481.208435 334.944519,469.455200 
	C360.194672,454.887360 385.427765,440.289825 410.646027,425.666870 
	C427.367004,415.971069 437.070618,402.097443 437.033722,382.110504 
	C436.932556,327.298676 437.224579,272.485077 436.858246,217.675491 
	C436.750763,201.597641 429.268646,188.337463 415.490723,180.007568 
	C389.980713,164.584641 363.964294,149.999634 338.169128,135.047867 
	C317.530243,123.084839 296.922058,111.068733 276.271423,99.126083 
	C259.416382,89.378487 242.191757,87.839890 224.849136,97.641945 
	C203.655029,109.620850 182.618576,121.878662 160.940109,134.474884 
M1248.027832,418.174988 
	C1248.017822,421.685150 1250.662354,420.966095 1252.677734,420.974731 
	C1264.174316,421.024017 1275.675537,420.815430 1287.165771,421.092407 
	C1291.615845,421.199677 1293.146240,420.065765 1293.109863,415.330353 
	C1292.889282,386.673370 1292.950806,358.013641 1293.044312,329.355255 
	C1293.061523,324.068176 1293.467773,318.763367 1294.017456,313.500488 
	C1295.888550,295.585236 1307.955688,281.267975 1327.963135,281.721710 
	C1339.204834,281.976654 1346.767456,283.441528 1351.197998,296.784790 
	C1352.472900,300.624390 1352.910767,304.897949 1352.925537,308.975464 
	C1353.054688,344.631744 1353.051147,380.288879 1352.927979,415.945190 
	C1352.914795,419.787445 1353.909546,421.176056 1357.948608,421.087433 
	C1369.439941,420.835327 1380.944702,420.815826 1392.434814,421.094238 
	C1396.747681,421.198730 1398.134766,420.071808 1398.103882,415.561249 
	C1397.901367,386.070831 1397.956665,356.578217 1398.043335,327.086670 
	C1398.057495,322.299683 1398.306152,317.461914 1399.032349,312.737701 
	C1401.709229,295.326782 1410.715210,282.499176 1431.544556,281.683563 
	C1445.974731,281.118500 1454.165283,286.525574 1456.714722,299.788605 
	C1457.553711,304.153503 1457.933228,308.670898 1457.946167,313.120209 
	C1458.044556,346.943848 1457.998047,380.767914 1458.001709,414.591827 
	C1458.002441,420.989349 1458.013062,420.995392 1464.592285,420.998596 
	C1475.089355,421.003723 1485.596191,420.733124 1496.079224,421.116425 
	C1501.047241,421.298096 1502.126709,419.624573 1502.103516,414.915314 
	C1501.918091,377.260040 1502.170654,339.602051 1501.863281,301.948395 
	C1501.797852,293.924164 1500.863770,285.682617 1498.805542,277.946838 
	C1494.795288,262.875458 1485.677856,252.009369 1470.280640,246.850479 
	C1461.044800,243.756012 1451.667236,243.780319 1442.237793,244.051270 
	C1422.793579,244.609924 1407.530029,252.628525 1397.544678,269.797485 
	C1396.623291,271.381836 1394.910278,272.505798 1393.564819,273.843628 
	C1392.431152,272.323029 1391.009399,270.939056 1390.212891,269.258698 
	C1386.337769,261.083923 1380.618042,254.782028 1372.700684,250.262436 
	C1361.795654,244.037354 1349.968140,243.655014 1337.942139,243.994919 
	C1324.491089,244.375092 1312.553711,248.501114 1303.138550,258.442108 
	C1299.458252,262.327972 1296.240845,266.652313 1292.040649,271.705658 
	C1291.576904,269.031311 1291.079590,267.376038 1291.040405,265.709991 
	C1290.927002,260.880615 1290.838501,256.039917 1291.050903,251.217361 
	C1291.196533,247.909302 1289.929810,246.903183 1286.712646,246.947067 
	C1275.884277,247.094803 1265.041870,247.287277 1254.227173,246.875412 
	C1249.083984,246.679535 1247.870239,248.269379 1247.886963,253.278427 
	C1248.069580,307.929291 1248.004395,362.580963 1248.027832,418.174988 
M1116.757446,423.618164 
	C1131.749268,419.826233 1143.745239,411.501862 1153.211914,398.864471 
	C1154.001221,405.047974 1154.201660,410.652740 1153.930908,416.234680 
	C1153.750122,419.960419 1154.996094,421.141968 1158.741089,421.075775 
	C1170.567749,420.866669 1182.402710,420.870361 1194.229492,421.074188 
	C1197.936523,421.138092 1199.074951,420.013733 1199.070435,416.267395 
	C1198.975586,338.120331 1198.966187,259.973053 1199.088989,181.826050 
	C1199.095581,177.612244 1197.482056,176.880630 1193.823486,176.937698 
	C1182.662354,177.111694 1171.489014,177.244888 1160.336304,176.891983 
	C1155.161865,176.728241 1153.857666,178.549973 1153.899658,183.500748 
	C1154.116211,208.992554 1154.006226,234.487183 1153.987427,259.980835 
	C1153.986084,261.879913 1153.805054,263.778870 1153.626831,267.250061 
	C1151.616699,265.304169 1150.722534,264.342651 1149.731079,263.495087 
	C1144.843140,259.316559 1140.391724,254.384842 1134.933838,251.163071 
	C1121.155396,243.029663 1105.970703,242.740341 1090.546021,244.893417 
	C1063.564941,248.659668 1047.108154,264.766052 1037.751343,289.434631 
	C1031.631348,305.569366 1030.806396,322.319611 1030.899048,339.338409 
	C1031.004150,358.624603 1034.796875,376.871277 1044.375732,393.663696 
	C1051.492310,406.139587 1061.711548,415.064392 1075.350342,420.301117 
	C1088.650879,425.407990 1102.140137,425.749512 1116.757446,423.618164 
M1803.476074,424.000946 
	C1814.569336,425.812836 1825.543945,424.864777 1836.568848,423.049286 
	C1860.785522,419.061493 1876.925415,404.853760 1888.163208,383.355713 
	C1878.591187,377.120850 1869.346680,371.040070 1860.033936,365.065948 
	C1856.809692,362.997681 1854.601929,364.183624 1852.772705,367.421356 
	C1848.872803,374.324615 1843.743286,379.984131 1836.092896,382.995880 
	C1827.121582,386.527710 1818.102417,387.516571 1808.407227,386.181946 
	C1792.706665,384.020691 1782.147339,376.161987 1776.963745,361.207275 
	C1775.090088,355.801727 1773.105469,350.355774 1774.527954,344.000000 
	C1776.837280,344.000000 1778.808472,344.000031 1780.779541,344.000031 
	C1814.438477,343.999908 1848.097534,344.004913 1881.756470,343.995026 
	C1887.914795,343.993225 1889.168091,342.968994 1888.941528,336.722229 
	C1888.467285,323.644348 1888.639771,310.439880 1886.791138,297.538971 
	C1883.988159,277.979828 1874.041748,262.283234 1856.059448,253.143005 
	C1830.646240,240.225906 1804.016724,240.778351 1777.865356,249.905563 
	C1755.938477,257.558411 1741.774414,274.252869 1734.067871,295.861023 
	C1727.275269,314.906616 1726.605225,334.610352 1729.823730,354.628235 
	C1732.994873,374.350067 1740.079834,391.701691 1755.535522,405.125122 
	C1769.095581,416.902069 1785.013794,422.368591 1803.476074,424.000946 
M651.483093,388.033295 
	C657.484863,394.949127 662.597473,402.999054 669.672485,408.545929 
	C684.640625,420.281097 702.813293,423.936249 721.418274,424.914917 
	C735.166565,425.638123 748.833801,424.096741 761.646118,418.871704 
	C778.335083,412.065765 790.099182,399.814209 798.323792,383.417450 
	C789.267334,377.460541 780.447205,371.794525 771.781555,365.901337 
	C767.521179,363.004028 764.760742,363.706940 762.298096,368.246338 
	C757.524292,377.045807 750.136230,382.604523 740.364136,385.039398 
	C733.098083,386.849854 725.945740,387.150116 718.407288,386.182831 
	C704.683472,384.421906 694.658508,377.981537 688.953918,365.461365 
	C685.942383,358.851929 683.400818,351.915070 684.278931,344.000000 
	C696.756287,344.000000 708.730164,344.000031 720.704041,343.999969 
	C744.690796,343.999847 768.677612,343.984589 792.664368,344.018738 
	C795.661255,344.023010 798.619812,343.943756 798.930237,340.094208 
	C799.421387,334.003601 800.177490,327.860474 799.838562,321.794495 
	C799.363098,313.284088 798.512024,304.722137 796.891174,296.362640 
	C792.924500,275.904266 782.028564,259.752075 762.864075,251.296249 
	C738.490723,240.542099 712.805176,240.763168 688.120667,249.780441 
	C663.640076,258.723267 648.657532,277.679749 642.160889,302.748199 
	C638.655762,316.273804 637.351013,330.083771 638.753662,344.315674 
	C640.259888,359.598480 643.188171,374.140839 651.483093,388.033295 
M1591.174683,419.573212 
	C1607.119019,423.672241 1623.106201,426.164673 1639.744263,424.166565 
	C1654.034180,422.450439 1667.431274,418.850128 1678.584106,409.565826 
	C1687.116455,402.462921 1694.736450,394.375305 1699.090576,383.122467 
	C1689.546143,377.005554 1680.119507,370.927887 1670.649536,364.918793 
	C1668.055908,363.273010 1666.518188,364.264740 1664.487549,366.623779 
	C1659.813599,372.053436 1655.209106,378.104767 1649.255249,381.739807 
	C1640.194824,387.271667 1629.750366,387.679749 1619.047485,386.166931 
	C1605.630981,384.270569 1595.727051,377.926727 1590.059326,365.765320 
	C1586.980103,359.158112 1584.337891,352.140320 1585.428101,344.000000 
	C1587.828369,344.000000 1589.798828,344.000000 1591.769165,344.000000 
	C1625.590576,343.999817 1659.411987,343.982391 1693.233398,344.024139 
	C1696.899292,344.028656 1700.017212,343.693268 1699.996094,338.921265 
	C1699.933472,324.742035 1701.172363,310.531464 1698.036499,296.462006 
	C1693.309692,275.254761 1682.211548,258.966217 1661.768188,250.469025 
	C1641.511597,242.049530 1620.510376,242.125931 1599.327026,246.777527 
	C1581.585571,250.673355 1567.248169,260.057922 1556.464722,274.386932 
	C1543.956665,291.007538 1539.813232,310.596832 1539.152466,330.907776 
	C1538.890747,338.952362 1540.097534,347.079437 1541.043945,355.120911 
	C1542.677246,368.996368 1547.506226,381.738983 1555.648682,393.140442 
	C1564.484375,405.512482 1576.354736,413.870178 1591.174683,419.573212 
M853.502380,421.000000 
	C861.001709,420.999634 868.508423,420.801483 875.997437,421.079315 
	C879.951599,421.226013 881.537476,419.934204 881.029663,415.992310 
	C880.839600,414.516937 880.986145,412.996307 881.002014,411.496582 
	C881.333496,380.209869 881.365723,348.914551 882.254761,317.643646 
	C882.434937,311.306396 884.768738,304.426727 888.000061,298.902924 
	C895.184937,286.620850 906.721863,281.147369 920.988770,281.636505 
	C927.499146,281.859711 933.835876,282.700653 939.280273,286.762421 
	C947.535767,292.921478 948.804871,302.104706 948.881348,311.203583 
	C949.174011,346.032257 949.061890,380.865112 948.917969,415.695679 
	C948.901062,419.777802 949.967590,421.192444 954.201416,421.091400 
	C965.527588,420.821014 976.869446,420.804443 988.194580,421.096161 
	C992.700806,421.212250 994.141602,419.980042 994.106262,415.298920 
	C993.892395,386.968994 994.211975,358.634338 993.909424,330.306030 
	C993.760803,316.391083 993.571106,302.364441 991.734680,288.610687 
	C989.836182,274.391754 984.141724,261.341492 971.421875,253.015228 
	C954.272400,241.789459 935.315247,242.125183 916.288147,245.964157 
	C902.100525,248.826675 891.610352,257.556122 883.821228,269.644226 
	C882.928528,271.029724 881.481506,272.058044 880.291443,273.251984 
	C879.860107,272.977997 879.428711,272.704041 878.997375,272.430054 
	C878.997375,265.450928 878.842224,258.466858 879.062622,251.494705 
	C879.173340,247.990860 877.964417,246.875183 874.488098,246.936707 
	C864.158630,247.119507 853.823914,246.996368 843.491211,247.001709 
	C837.011902,247.005066 837.001953,247.012253 837.001587,253.511871 
	C836.998840,307.175171 836.999939,360.838470 837.000610,414.501770 
	C837.000610,415.501678 837.078003,416.507080 836.999329,417.500427 
	C836.795349,420.076538 837.935913,421.092957 840.506042,421.018982 
	C844.502319,420.903992 848.504578,420.995850 853.502380,421.000000 
M593.500000,421.000000 
	C599.663818,420.998260 605.830566,420.881744 611.990112,421.043640 
	C615.015930,421.123199 616.089417,420.050934 616.045471,417.007263 
	C615.908447,407.513763 615.778442,398.009552 616.097168,388.524689 
	C616.244507,384.140045 614.964722,382.871674 610.521667,382.899963 
	C580.370422,383.092133 550.217285,383.001190 520.064819,382.999237 
	C513.006775,382.998779 513.001099,382.994354 513.000916,376.067078 
	C512.999207,316.095276 512.951721,256.123322 513.090271,196.151855 
	C513.101379,191.329468 511.617798,189.785049 506.818878,189.906525 
	C495.331635,190.197311 483.825104,190.233200 472.340729,189.890656 
	C467.433655,189.744308 465.860138,190.924454 465.873535,196.161224 
	C466.060364,269.126465 466.049316,342.092438 465.890381,415.057770 
	C465.879700,419.966125 467.311188,421.126740 472.057098,421.105011 
	C512.204041,420.920868 552.352234,420.999939 593.500000,421.000000 
z"/>
<path fill="#364960" opacity="1.000000" stroke="none" 
	d="
M161.227036,134.245377 
	C182.618576,121.878662 203.655029,109.620850 224.849136,97.641945 
	C242.191757,87.839890 259.416382,89.378487 276.271423,99.126083 
	C296.922058,111.068733 317.530243,123.084839 338.169128,135.047867 
	C363.964294,149.999634 389.980713,164.584641 415.490723,180.007568 
	C429.268646,188.337463 436.750763,201.597641 436.858246,217.675491 
	C437.224579,272.485077 436.932556,327.298676 437.033722,382.110504 
	C437.070618,402.097443 427.367004,415.971069 410.646027,425.666870 
	C385.427765,440.289825 360.194672,454.887360 334.944519,469.455200 
	C314.572815,481.208435 294.311096,493.163177 273.732452,504.543549 
	C255.547592,514.600159 237.596832,512.689331 219.940140,502.325775 
	C193.085907,486.563721 166.018387,471.165436 139.090302,455.528534 
	C119.469711,444.135071 99.460297,433.318268 80.517448,420.883667 
	C68.152191,412.766846 61.050499,400.181946 61.030220,384.728333 
	C60.957203,329.083405 60.936821,273.438202 61.041386,217.793396 
	C61.071831,201.591949 68.548660,188.540771 81.871559,180.340469 
	C107.810898,164.374695 134.538818,149.690109 161.227036,134.245377 
M326.190491,321.681793 
	C329.473419,318.611816 332.819458,315.605835 336.019348,312.451599 
	C338.590881,309.916779 339.996521,306.930511 337.571838,303.565216 
	C335.410065,300.564850 332.514343,300.334686 329.144989,301.657684 
	C319.096649,305.603088 308.962067,309.329651 298.931976,313.319702 
	C297.400848,313.928802 295.812592,315.230560 294.993408,316.642731 
	C292.026031,321.758057 287.753265,324.205292 281.887665,324.167145 
	C273.896179,324.115173 265.904053,324.143707 257.912262,324.164856 
	C254.660355,324.173462 251.046509,324.383728 251.025192,319.819641 
	C251.002579,314.973602 254.819214,315.177856 258.225922,315.174805 
	C265.884766,315.167938 273.545349,315.268341 281.201904,315.135773 
	C286.798920,315.038818 288.747406,311.326813 286.094360,306.342194 
	C284.191620,302.767273 281.035217,301.712128 277.322479,301.848358 
	C266.984802,302.227692 257.216187,302.001129 248.118652,295.081696 
	C241.462723,290.019318 231.587921,292.416687 226.406967,298.707123 
	C218.377548,308.456024 210.722687,318.513397 202.809372,328.566589 
	C210.428940,340.030945 217.805069,351.286835 225.440475,362.364014 
	C226.174118,363.428375 228.595215,363.957672 230.106964,363.762024 
	C248.580261,361.370941 267.045807,358.903809 285.468414,356.155029 
	C288.172363,355.751556 291.108734,354.299164 293.144073,352.455902 
	C304.125000,342.511414 314.855713,332.290588 326.190491,321.681793 
M348.060272,233.631348 
	C347.686340,227.684479 348.194214,221.519638 346.787415,215.828064 
	C340.346222,189.768143 313.075562,175.302399 285.969025,183.112198 
	C261.158661,190.260437 248.966599,214.050018 257.070923,239.499268 
	C263.780426,260.568573 284.080170,276.084167 303.298126,274.831848 
	C326.654022,273.309845 344.298584,257.391907 348.060272,233.631348 
M161.968750,388.586121 
	C169.146561,399.283997 176.324356,409.981873 183.706207,420.983826 
	C193.532059,413.634094 202.914490,406.616058 212.459412,399.476471 
	C200.903992,382.240509 189.668884,365.482330 178.283127,348.499451 
	C168.369019,355.921082 158.993820,362.939270 149.556244,370.004150 
	C153.815384,376.384552 157.688538,382.186707 161.968750,388.586121 
M200.893005,342.543091 
	C199.366837,340.245758 197.840652,337.948425 196.086182,335.307404 
	C192.352997,338.157440 189.003860,340.714294 185.551620,343.349823 
	C194.907852,357.242462 203.961853,370.686310 213.097458,384.251343 
	C216.557861,381.676788 219.582626,379.426331 222.860687,376.987427 
	C215.501480,365.473114 208.376450,354.325195 200.893005,342.543091 
z"/>
<path fill="#364960" opacity="1.000000" stroke="none" 
	d="
M1248.017212,417.703705 
	C1248.004395,362.580963 1248.069580,307.929291 1247.886963,253.278427 
	C1247.870239,248.269379 1249.083984,246.679535 1254.227173,246.875412 
	C1265.041870,247.287277 1275.884277,247.094803 1286.712646,246.947067 
	C1289.929810,246.903183 1291.196533,247.909302 1291.050903,251.217361 
	C1290.838501,256.039917 1290.927002,260.880615 1291.040405,265.709991 
	C1291.079590,267.376038 1291.576904,269.031311 1292.040649,271.705658 
	C1296.240845,266.652313 1299.458252,262.327972 1303.138550,258.442108 
	C1312.553711,248.501114 1324.491089,244.375092 1337.942139,243.994919 
	C1349.968140,243.655014 1361.795654,244.037354 1372.700684,250.262436 
	C1380.618042,254.782028 1386.337769,261.083923 1390.212891,269.258698 
	C1391.009399,270.939056 1392.431152,272.323029 1393.564819,273.843597 
	C1394.910278,272.505798 1396.623291,271.381836 1397.544678,269.797485 
	C1407.530029,252.628525 1422.793579,244.609924 1442.237793,244.051270 
	C1451.667236,243.780319 1461.044800,243.756012 1470.280640,246.850479 
	C1485.677856,252.009369 1494.795288,262.875458 1498.805542,277.946838 
	C1500.863770,285.682617 1501.797852,293.924164 1501.863281,301.948395 
	C1502.170654,339.602051 1501.918091,377.260040 1502.103516,414.915314 
	C1502.126709,419.624573 1501.047241,421.298096 1496.079224,421.116425 
	C1485.596191,420.733124 1475.089355,421.003723 1464.592285,420.998596 
	C1458.013062,420.995392 1458.002441,420.989349 1458.001709,414.591827 
	C1457.998047,380.767914 1458.044556,346.943848 1457.946167,313.120209 
	C1457.933228,308.670898 1457.553711,304.153503 1456.714722,299.788605 
	C1454.165283,286.525574 1445.974731,281.118500 1431.544556,281.683563 
	C1410.715210,282.499176 1401.709229,295.326782 1399.032349,312.737701 
	C1398.306152,317.461914 1398.057495,322.299683 1398.043335,327.086670 
	C1397.956665,356.578217 1397.901367,386.070831 1398.103882,415.561249 
	C1398.134766,420.071808 1396.747681,421.198730 1392.434814,421.094238 
	C1380.944702,420.815826 1369.439941,420.835327 1357.948608,421.087433 
	C1353.909546,421.176056 1352.914795,419.787445 1352.927979,415.945190 
	C1353.051147,380.288879 1353.054688,344.631744 1352.925537,308.975464 
	C1352.910767,304.897949 1352.472900,300.624390 1351.197998,296.784790 
	C1346.767456,283.441528 1339.204834,281.976654 1327.963135,281.721710 
	C1307.955688,281.267975 1295.888550,295.585236 1294.017456,313.500488 
	C1293.467773,318.763367 1293.061523,324.068176 1293.044312,329.355255 
	C1292.950806,358.013641 1292.889282,386.673370 1293.109863,415.330353 
	C1293.146240,420.065765 1291.615845,421.199677 1287.165771,421.092407 
	C1275.675537,420.815430 1264.174316,421.024017 1252.677734,420.974731 
	C1250.662354,420.966095 1248.017822,421.685150 1248.017212,417.703705 
z"/>
<path fill="#364960" opacity="1.000000" stroke="none" 
	d="
M1116.347168,423.741943 
	C1102.140137,425.749512 1088.650879,425.407990 1075.350342,420.301117 
	C1061.711548,415.064392 1051.492310,406.139587 1044.375732,393.663696 
	C1034.796875,376.871277 1031.004150,358.624603 1030.899048,339.338409 
	C1030.806396,322.319611 1031.631348,305.569366 1037.751343,289.434631 
	C1047.108154,264.766052 1063.564941,248.659668 1090.546021,244.893417 
	C1105.970703,242.740341 1121.155396,243.029663 1134.933838,251.163071 
	C1140.391724,254.384842 1144.843140,259.316559 1149.731079,263.495087 
	C1150.722534,264.342651 1151.616699,265.304169 1153.626831,267.250061 
	C1153.805054,263.778870 1153.986084,261.879913 1153.987427,259.980835 
	C1154.006226,234.487183 1154.116211,208.992554 1153.899658,183.500748 
	C1153.857666,178.549973 1155.161865,176.728241 1160.336304,176.891983 
	C1171.489014,177.244888 1182.662354,177.111694 1193.823486,176.937698 
	C1197.482056,176.880630 1199.095581,177.612244 1199.088989,181.826050 
	C1198.966187,259.973053 1198.975586,338.120331 1199.070435,416.267395 
	C1199.074951,420.013733 1197.936523,421.138092 1194.229492,421.074188 
	C1182.402710,420.870361 1170.567749,420.866669 1158.741089,421.075775 
	C1154.996094,421.141968 1153.750122,419.960419 1153.930908,416.234680 
	C1154.201660,410.652740 1154.001221,405.047974 1153.211914,398.864471 
	C1143.745239,411.501862 1131.749268,419.826233 1116.347168,423.741943 
M1136.604736,287.842072 
	C1130.667358,283.355682 1123.838013,282.114075 1116.560425,281.713959 
	C1100.333862,280.821777 1087.092407,288.292542 1081.567993,303.137299 
	C1074.369751,322.479767 1074.313843,342.441071 1080.292114,361.986145 
	C1085.425293,378.768188 1098.791260,387.521698 1116.585449,386.912933 
	C1132.175659,386.379578 1145.605103,377.850586 1150.880981,360.969208 
	C1154.726196,348.665649 1155.650146,336.186005 1154.151855,323.281036 
	C1152.543945,309.431488 1148.565796,297.126068 1136.604736,287.842072 
z"/>
<path fill="#364960" opacity="1.000000" stroke="none" 
	d="
M1803.016846,424.000122 
	C1785.013794,422.368591 1769.095581,416.902069 1755.535522,405.125122 
	C1740.079834,391.701691 1732.994873,374.350067 1729.823730,354.628235 
	C1726.605225,334.610352 1727.275269,314.906616 1734.067871,295.861023 
	C1741.774414,274.252869 1755.938477,257.558411 1777.865356,249.905563 
	C1804.016724,240.778351 1830.646240,240.225906 1856.059448,253.143005 
	C1874.041748,262.283234 1883.988159,277.979828 1886.791138,297.538971 
	C1888.639771,310.439880 1888.467285,323.644348 1888.941528,336.722229 
	C1889.168091,342.968994 1887.914795,343.993225 1881.756470,343.995026 
	C1848.097534,344.004913 1814.438477,343.999908 1780.779541,344.000031 
	C1778.808472,344.000031 1776.837280,344.000000 1774.527954,344.000000 
	C1773.105469,350.355774 1775.090088,355.801727 1776.963745,361.207275 
	C1782.147339,376.161987 1792.706665,384.020691 1808.407227,386.181946 
	C1818.102417,387.516571 1827.121582,386.527710 1836.092896,382.995880 
	C1843.743286,379.984131 1848.872803,374.324615 1852.772705,367.421356 
	C1854.601929,364.183624 1856.809692,362.997681 1860.033936,365.065948 
	C1869.346680,371.040070 1878.591187,377.120850 1888.163208,383.355713 
	C1876.925415,404.853760 1860.785522,419.061493 1836.568848,423.049286 
	C1825.543945,424.864777 1814.569336,425.812836 1803.016846,424.000122 
M1821.500000,315.000000 
	C1829.623779,315.000000 1837.747559,315.000000 1845.991699,315.000000 
	C1845.991699,312.439087 1846.262939,310.280212 1845.946411,308.211304 
	C1844.177734,296.649475 1840.372070,285.771912 1828.440552,281.478027 
	C1813.635010,276.149963 1795.692749,276.683929 1783.813965,291.771027 
	C1778.637207,298.345795 1776.119507,306.073029 1775.032715,315.000000 
	C1790.614868,315.000000 1805.557495,315.000000 1821.500000,315.000000 
z"/>
<path fill="#BC003C" opacity="1.000000" stroke="none" 
	d="
M651.235107,387.757751 
	C643.188171,374.140839 640.259888,359.598480 638.753662,344.315674 
	C637.351013,330.083771 638.655762,316.273804 642.160889,302.748199 
	C648.657532,277.679749 663.640076,258.723267 688.120667,249.780441 
	C712.805176,240.763168 738.490723,240.542099 762.864075,251.296249 
	C782.028564,259.752075 792.924500,275.904266 796.891174,296.362640 
	C798.512024,304.722137 799.363098,313.284088 799.838562,321.794495 
	C800.177490,327.860474 799.421387,334.003601 798.930237,340.094208 
	C798.619812,343.943756 795.661255,344.023010 792.664368,344.018738 
	C768.677612,343.984589 744.690796,343.999847 720.704041,343.999969 
	C708.730164,344.000031 696.756287,344.000000 684.278931,344.000000 
	C683.400818,351.915070 685.942383,358.851929 688.953918,365.461365 
	C694.658508,377.981537 704.683472,384.421906 718.407288,386.182831 
	C725.945740,387.150116 733.098083,386.849854 740.364136,385.039398 
	C750.136230,382.604523 757.524292,377.045807 762.298096,368.246338 
	C764.760742,363.706940 767.521179,363.004028 771.781555,365.901337 
	C780.447205,371.794525 789.267334,377.460541 798.323792,383.417450 
	C790.099182,399.814209 778.335083,412.065765 761.646118,418.871704 
	C748.833801,424.096741 735.166565,425.638123 721.418274,424.914917 
	C702.813293,423.936249 684.640625,420.281097 669.672485,408.545929 
	C662.597473,402.999054 657.484863,394.949127 651.235107,387.757751 
M750.352295,315.000000 
	C752.469421,315.000000 754.586487,315.000000 756.741699,315.000000 
	C754.554016,284.960815 740.716858,276.751862 715.589844,279.116577 
	C699.392700,280.640930 686.426147,296.314209 685.555298,314.609680 
	C685.866943,314.711578 686.178467,314.902100 686.490295,314.902710 
	C707.455322,314.944885 728.420349,314.971802 750.352295,315.000000 
z"/>
<path fill="#364960" opacity="1.000000" stroke="none" 
	d="
M1590.834717,419.368988 
	C1576.354736,413.870178 1564.484375,405.512482 1555.648682,393.140442 
	C1547.506226,381.738983 1542.677246,368.996368 1541.043945,355.120911 
	C1540.097534,347.079437 1538.890747,338.952362 1539.152466,330.907776 
	C1539.813232,310.596832 1543.956665,291.007538 1556.464722,274.386932 
	C1567.248169,260.057922 1581.585571,250.673355 1599.327026,246.777527 
	C1620.510376,242.125931 1641.511597,242.049530 1661.768188,250.469025 
	C1682.211548,258.966217 1693.309692,275.254761 1698.036499,296.462006 
	C1701.172363,310.531464 1699.933472,324.742035 1699.996094,338.921265 
	C1700.017212,343.693268 1696.899292,344.028656 1693.233398,344.024139 
	C1659.411987,343.982391 1625.590576,343.999817 1591.769165,344.000000 
	C1589.798828,344.000000 1587.828369,344.000000 1585.428101,344.000000 
	C1584.337891,352.140320 1586.980103,359.158112 1590.059326,365.765320 
	C1595.727051,377.926727 1605.630981,384.270569 1619.047485,386.166931 
	C1629.750366,387.679749 1640.194824,387.271667 1649.255249,381.739807 
	C1655.209106,378.104767 1659.813599,372.053436 1664.487549,366.623779 
	C1666.518188,364.264740 1668.055908,363.273010 1670.649536,364.918793 
	C1680.119507,370.927887 1689.546143,377.005554 1699.090576,383.122467 
	C1694.736450,394.375305 1687.116455,402.462921 1678.584106,409.565826 
	C1667.431274,418.850128 1654.034180,422.450439 1639.744263,424.166565 
	C1623.106201,426.164673 1607.119019,423.672241 1590.834717,419.368988 
M1656.067139,303.483826 
	C1654.183105,298.958679 1652.988281,293.960144 1650.272705,290.006073 
	C1644.456543,281.537659 1635.562866,279.550629 1625.627563,278.753845 
	C1602.378540,276.889221 1587.700928,294.979584 1586.596558,314.519592 
	C1610.275635,314.519592 1633.946289,314.519592 1657.927002,314.519592 
	C1657.295166,310.779724 1656.749512,307.550293 1656.067139,303.483826 
z"/>
<path fill="#364960" opacity="1.000000" stroke="none" 
	d="
M853.003296,421.000000 
	C848.504578,420.995850 844.502319,420.903992 840.506042,421.018982 
	C837.935913,421.092957 836.795349,420.076538 836.999329,417.500427 
	C837.078003,416.507080 837.000610,415.501678 837.000610,414.501770 
	C836.999939,360.838470 836.998840,307.175171 837.001587,253.511871 
	C837.001953,247.012253 837.011902,247.005066 843.491211,247.001709 
	C853.823914,246.996368 864.158630,247.119507 874.488098,246.936707 
	C877.964417,246.875183 879.173340,247.990860 879.062622,251.494705 
	C878.842224,258.466858 878.997375,265.450928 878.997375,272.430054 
	C879.428711,272.704041 879.860107,272.977997 880.291443,273.251984 
	C881.481506,272.058044 882.928528,271.029724 883.821228,269.644226 
	C891.610352,257.556122 902.100525,248.826675 916.288147,245.964157 
	C935.315247,242.125183 954.272400,241.789459 971.421875,253.015228 
	C984.141724,261.341492 989.836182,274.391754 991.734680,288.610687 
	C993.571106,302.364441 993.760803,316.391083 993.909424,330.306030 
	C994.211975,358.634338 993.892395,386.968994 994.106262,415.298920 
	C994.141602,419.980042 992.700806,421.212250 988.194580,421.096161 
	C976.869446,420.804443 965.527588,420.821014 954.201416,421.091400 
	C949.967590,421.192444 948.901062,419.777802 948.917969,415.695679 
	C949.061890,380.865112 949.174011,346.032257 948.881348,311.203583 
	C948.804871,302.104706 947.535767,292.921478 939.280273,286.762421 
	C933.835876,282.700653 927.499146,281.859711 920.988770,281.636505 
	C906.721863,281.147369 895.184937,286.620850 888.000061,298.902924 
	C884.768738,304.426727 882.434937,311.306396 882.254761,317.643646 
	C881.365723,348.914551 881.333496,380.209869 881.002014,411.496582 
	C880.986145,412.996307 880.839600,414.516937 881.029663,415.992310 
	C881.537476,419.934204 879.951599,421.226013 875.997437,421.079315 
	C868.508423,420.801483 861.001709,420.999634 853.003296,421.000000 
z"/>
<path fill="#364960" opacity="1.000000" stroke="none" 
	d="
M593.000000,421.000000 
	C552.352234,420.999939 512.204041,420.920868 472.057098,421.105011 
	C467.311188,421.126740 465.879700,419.966125 465.890381,415.057770 
	C466.049316,342.092438 466.060364,269.126465 465.873535,196.161224 
	C465.860138,190.924454 467.433655,189.744308 472.340729,189.890656 
	C483.825104,190.233200 495.331635,190.197311 506.818878,189.906525 
	C511.617798,189.785049 513.101379,191.329468 513.090271,196.151855 
	C512.951721,256.123322 512.999207,316.095276 513.000916,376.067078 
	C513.001099,382.994354 513.006775,382.998779 520.064819,382.999237 
	C550.217285,383.001190 580.370422,383.092133 610.521667,382.899963 
	C614.964722,382.871674 616.244507,384.140045 616.097168,388.524689 
	C615.778442,398.009552 615.908447,407.513763 616.045471,417.007263 
	C616.089417,420.050934 615.015930,421.123199 611.990112,421.043640 
	C605.830566,420.881744 599.663818,420.998260 593.000000,421.000000 
z"/>
<path fill="#FDFDFE" opacity="1.000000" stroke="none" 
	d="
M325.931580,321.923401 
	C314.855713,332.290588 304.125000,342.511414 293.144073,352.455902 
	C291.108734,354.299164 288.172363,355.751556 285.468414,356.155029 
	C267.045807,358.903809 248.580261,361.370941 230.106964,363.762024 
	C228.595215,363.957672 226.174118,363.428375 225.440475,362.364014 
	C217.805069,351.286835 210.428940,340.030945 202.809372,328.566589 
	C210.722687,318.513397 218.377548,308.456024 226.406967,298.707123 
	C231.587921,292.416687 241.462723,290.019318 248.118652,295.081696 
	C257.216187,302.001129 266.984802,302.227692 277.322479,301.848358 
	C281.035217,301.712128 284.191620,302.767273 286.094360,306.342194 
	C288.747406,311.326813 286.798920,315.038818 281.201904,315.135773 
	C273.545349,315.268341 265.884766,315.167938 258.225922,315.174805 
	C254.819214,315.177856 251.002579,314.973602 251.025192,319.819641 
	C251.046509,324.383728 254.660355,324.173462 257.912262,324.164856 
	C265.904053,324.143707 273.896179,324.115173 281.887665,324.167145 
	C287.753265,324.205292 292.026031,321.758057 294.993408,316.642731 
	C295.812592,315.230560 297.400848,313.928802 298.931976,313.319702 
	C308.962067,309.329651 319.096649,305.603088 329.144989,301.657684 
	C332.514343,300.334686 335.410065,300.564850 337.571838,303.565216 
	C339.996521,306.930511 338.590881,309.916779 336.019348,312.451599 
	C332.819458,315.605835 329.473419,318.611816 325.931580,321.923401 
z"/>
<path fill="#F9FAFA" opacity="1.000000" stroke="none" 
	d="
M348.036255,234.062286 
	C344.298584,257.391907 326.654022,273.309845 303.298126,274.831848 
	C284.080170,276.084167 263.780426,260.568573 257.070923,239.499268 
	C248.966599,214.050018 261.158661,190.260437 285.969025,183.112198 
	C313.075562,175.302399 340.346222,189.768143 346.787415,215.828064 
	C348.194214,221.519638 347.686340,227.684479 348.036255,234.062286 
M316.264496,192.038132 
	C297.247803,185.172394 277.889008,191.672882 268.159851,208.191208 
	C258.781769,224.113480 261.920532,244.964142 275.795471,256.752899 
	C288.191650,267.285217 302.295349,269.695190 317.174591,263.117737 
	C331.633118,256.726257 339.604858,245.173233 340.096497,229.207092 
	C340.629120,211.911301 332.256897,199.875214 316.264496,192.038132 
z"/>
<path fill="#FDFEFE" opacity="1.000000" stroke="none" 
	d="
M161.765213,388.287476 
	C157.688538,382.186707 153.815384,376.384552 149.556244,370.004150 
	C158.993820,362.939270 168.369019,355.921082 178.283127,348.499451 
	C189.668884,365.482330 200.903992,382.240509 212.459412,399.476471 
	C202.914490,406.616058 193.532059,413.634094 183.706207,420.983826 
	C176.324356,409.981873 169.146561,399.283997 161.765213,388.287476 
z"/>
<path fill="#FAFBFB" opacity="1.000000" stroke="none" 
	d="
M201.072205,342.860168 
	C208.376450,354.325195 215.501480,365.473114 222.860687,376.987427 
	C219.582626,379.426331 216.557861,381.676788 213.097458,384.251343 
	C203.961853,370.686310 194.907852,357.242462 185.551620,343.349823 
	C189.003860,340.714294 192.352997,338.157440 196.086182,335.307404 
	C197.840652,337.948425 199.366837,340.245758 201.072205,342.860168 
z"/>
<path fill="#000000" opacity="1.000000" stroke="none" 
	d="
M1136.941895,287.977264 
	C1148.565796,297.126068 1152.543945,309.431488 1154.151855,323.281036 
	C1155.650146,336.186005 1154.726196,348.665649 1150.880981,360.969208 
	C1145.605103,377.850586 1132.175659,386.379578 1116.585449,386.912933 
	C1098.791260,387.521698 1085.425293,378.768188 1080.292114,361.986145 
	C1074.313843,342.441071 1074.369751,322.479767 1081.567993,303.137299 
	C1087.092407,288.292542 1100.333862,280.821777 1116.560425,281.713959 
	C1123.838013,282.114075 1130.667358,283.355682 1136.941895,287.977264 
z"/>
<path fill="#000000" opacity="1.000000" stroke="none" 
	d="
M1821.000000,315.000000 
	C1805.557495,315.000000 1790.614868,315.000000 1775.032715,315.000000 
	C1776.119507,306.073029 1778.637207,298.345795 1783.813965,291.771027 
	C1795.692749,276.683929 1813.635010,276.149963 1828.440552,281.478027 
	C1840.372070,285.771912 1844.177734,296.649475 1845.946411,308.211304 
	C1846.262939,310.280212 1845.991699,312.439087 1845.991699,315.000000 
	C1837.747559,315.000000 1829.623779,315.000000 1821.000000,315.000000 
z"/>
<path fill="#000000" opacity="1.000000" stroke="none" 
	d="
M749.868835,315.000000 
	C728.420349,314.971802 707.455322,314.944885 686.490295,314.902710 
	C686.178467,314.902100 685.866943,314.711578 685.556580,314.605713 
	C686.426147,296.314209 699.392700,280.640930 715.589844,279.116577 
	C740.716858,276.751862 754.554016,284.960815 756.741699,315.000000 
	C754.586487,315.000000 752.469421,315.000000 749.868835,315.000000 
z"/>
<path fill="#000000" opacity="1.000000" stroke="none" 
	d="
M1656.135498,303.902344 
	C1656.749512,307.550293 1657.295166,310.779724 1657.927002,314.519592 
	C1633.946289,314.519592 1610.275635,314.519592 1586.596558,314.519592 
	C1587.700928,294.979584 1602.378540,276.889221 1625.627563,278.753845 
	C1635.562866,279.550629 1644.456543,281.537659 1650.272705,290.006073 
	C1652.988281,293.960144 1654.183105,298.958679 1656.135498,303.902344 
z"/>
<path fill="#3B4E64" opacity="1.000000" stroke="none" 
	d="
M316.621826,192.182465 
	C332.256897,199.875214 340.629120,211.911301 340.096497,229.207092 
	C339.604858,245.173233 331.633118,256.726257 317.174591,263.117737 
	C302.295349,269.695190 288.191650,267.285217 275.795471,256.752899 
	C261.920532,244.964142 258.781769,224.113480 268.159851,208.191208 
	C277.889008,191.672882 297.247803,185.172394 316.621826,192.182465 
M330.945343,232.943451 
	C331.027618,231.280609 331.173523,229.618073 331.182068,227.954865 
	C331.249329,214.872040 323.251740,203.764984 310.798676,199.603790 
	C298.860870,195.614792 285.448486,199.815277 277.789856,209.941467 
	C270.106842,220.099945 269.614258,234.016190 276.913361,244.475143 
	C284.052887,254.705414 294.092560,259.098846 306.366760,257.065308 
	C319.557922,254.879837 327.447327,246.582947 330.945343,232.943451 
z"/>
<path fill="#FAFBFB" opacity="1.000000" stroke="none" 
	d="
M330.883331,233.373901 
	C327.447327,246.582947 319.557922,254.879837 306.366760,257.065308 
	C294.092560,259.098846 284.052887,254.705414 276.913361,244.475143 
	C269.614258,234.016190 270.106842,220.099945 277.789856,209.941467 
	C285.448486,199.815277 298.860870,195.614792 310.798676,199.603790 
	C323.251740,203.764984 331.249329,214.872040 331.182068,227.954865 
	C331.173523,229.618073 331.027618,231.280609 330.883331,233.373901 
M284.653168,238.231445 
	C289.710266,241.361465 294.631226,244.747833 299.872681,247.530655 
	C303.319336,249.360596 319.167725,240.114853 319.925934,236.224808 
	C320.020172,235.741333 319.969543,235.230499 319.996460,234.732895 
	C320.903748,217.955154 320.903778,217.955444 306.301819,209.728226 
	C305.867737,209.483643 305.460571,209.187714 305.015564,208.966675 
	C300.363373,206.655899 284.142731,215.443878 283.944977,220.619812 
	C283.729828,226.251740 284.070160,231.904892 284.653168,238.231445 
z"/>
<path fill="#3A4C63" opacity="1.000000" stroke="none" 
	d="
M284.410767,237.890106 
	C284.070160,231.904892 283.729828,226.251740 283.944977,220.619812 
	C284.142731,215.443878 300.363373,206.655899 305.015564,208.966675 
	C305.460571,209.187714 305.867737,209.483643 306.301819,209.728226 
	C320.903778,217.955444 320.903748,217.955154 319.996460,234.732895 
	C319.969543,235.230499 320.020172,235.741333 319.925934,236.224808 
	C319.167725,240.114853 303.319336,249.360596 299.872681,247.530655 
	C294.631226,244.747833 289.710266,241.361465 284.410767,237.890106 
M305.724243,219.740402 
	C302.288788,216.474136 299.418365,218.842453 296.451385,220.631119 
	C293.132599,222.631866 290.810394,228.046463 293.219788,232.075043 
	C294.892242,234.871429 299.122162,237.597321 302.245636,237.638962 
	C305.124451,237.677307 309.315338,234.718475 310.678284,231.965805 
	C313.066803,227.141876 310.790833,222.666931 305.724243,219.740402 
z"/>
<path fill="#FBFBFC" opacity="1.000000" stroke="none" 
	d="
M306.071533,219.912109 
	C310.790833,222.666931 313.066803,227.141876 310.678284,231.965805 
	C309.315338,234.718475 305.124451,237.677307 302.245636,237.638962 
	C299.122162,237.597321 294.892242,234.871429 293.219788,232.075043 
	C290.810394,228.046463 293.132599,222.631866 296.451385,220.631119 
	C299.418365,218.842453 302.288788,216.474136 306.071533,219.912109 
z"/>
</svg>