<svg xmlns="http://www.w3.org/2000/svg" xmlns:xlink="http://www.w3.org/1999/xlink" width="100" zoomAndPan="magnify" viewBox="0 0 75 74.999997" height="100" preserveAspectRatio="xMidYMid meet" version="1.0"><defs><clipPath id="cc5bf64cb7"><path d="M 10.050781 28 L 44 28 L 44 51 L 10.050781 51 Z M 10.050781 28 " clip-rule="nonzero"/></clipPath><clipPath id="5ad2c0021d"><path d="M 10.050781 31 L 44 31 L 44 51 L 10.050781 51 Z M 10.050781 31 " clip-rule="nonzero"/></clipPath><clipPath id="f8a3e758e8"><path d="M 10.050781 28 L 33 28 L 33 41 L 10.050781 41 Z M 10.050781 28 " clip-rule="nonzero"/></clipPath><clipPath id="9d02795b65"><path d="M 10.050781 32 L 45 32 L 45 52 L 10.050781 52 Z M 10.050781 32 " clip-rule="nonzero"/></clipPath><clipPath id="a9886f43de"><path d="M 10.050781 27 L 34 27 L 34 41 L 10.050781 41 Z M 10.050781 27 " clip-rule="nonzero"/></clipPath><clipPath id="1c205e45dd"><path d="M 52 7.5 L 64.800781 7.5 L 64.800781 62.25 L 52 62.25 Z M 52 7.5 " clip-rule="nonzero"/></clipPath></defs><path fill="#4361b1" d="M 53.679688 8.355469 L 63.945312 8.355469 L 63.945312 61.394531 L 53.679688 61.394531 Z M 53.679688 8.355469 " fill-opacity="1" fill-rule="nonzero"/><path fill="#5980ee" d="M 55.390625 10.066406 L 62.234375 10.066406 L 62.234375 59.683594 L 55.390625 59.683594 Z M 55.390625 10.066406 " fill-opacity="1" fill-rule="nonzero"/><path fill="#283640" d="M 60.523438 14.34375 L 60.523438 48.5625 C 60.523438 48.789062 60.480469 49.007812 60.390625 49.21875 C 60.304688 49.425781 60.183594 49.613281 60.023438 49.773438 C 59.859375 49.933594 59.675781 50.054688 59.464844 50.144531 C 59.257812 50.230469 59.039062 50.273438 58.8125 50.273438 C 58.585938 50.273438 58.367188 50.230469 58.15625 50.144531 C 57.949219 50.054688 57.761719 49.933594 57.601562 49.773438 C 57.441406 49.613281 57.316406 49.425781 57.230469 49.21875 C 57.144531 49.007812 57.101562 48.789062 57.101562 48.5625 L 57.101562 14.34375 C 57.101562 14.117188 57.144531 13.898438 57.230469 13.6875 C 57.316406 13.480469 57.441406 13.292969 57.601562 13.132812 C 57.761719 12.972656 57.949219 12.851562 58.15625 12.761719 C 58.367188 12.675781 58.585938 12.632812 58.8125 12.632812 C 59.039062 12.632812 59.257812 12.675781 59.464844 12.761719 C 59.675781 12.851562 59.859375 12.972656 60.023438 13.132812 C 60.183594 13.292969 60.304688 13.480469 60.390625 13.6875 C 60.480469 13.898438 60.523438 14.117188 60.523438 14.34375 Z M 60.523438 14.34375 " fill-opacity="1" fill-rule="nonzero"/><path fill="#202d35" d="M 60.523438 14.34375 L 60.523438 48.5625 C 60.523438 48.789062 60.476562 49.007812 60.390625 49.214844 C 60.304688 49.425781 60.179688 49.609375 60.019531 49.769531 C 59.859375 49.929688 59.675781 50.054688 59.464844 50.140625 C 59.257812 50.230469 59.039062 50.273438 58.8125 50.273438 L 58.8125 12.632812 C 59.039062 12.632812 59.257812 12.675781 59.464844 12.765625 C 59.675781 12.851562 59.859375 12.976562 60.019531 13.136719 C 60.179688 13.296875 60.304688 13.480469 60.390625 13.691406 C 60.476562 13.898438 60.523438 14.117188 60.523438 14.34375 Z M 60.523438 14.34375 " fill-opacity="1" fill-rule="nonzero"/><path fill="#8fc92f" d="M 32.292969 16.910156 L 60.523438 16.910156 L 60.523438 45.996094 L 32.292969 45.996094 Z M 32.292969 16.910156 " fill-opacity="1" fill-rule="nonzero"/><path fill="#6c9722" d="M 60.523438 18.621094 L 60.523438 44.285156 L 38.28125 44.285156 C 38.054688 44.285156 37.835938 44.242188 37.625 44.152344 C 37.417969 44.066406 37.234375 43.941406 37.070312 43.78125 C 36.910156 43.621094 36.789062 43.4375 36.699219 43.226562 C 36.613281 43.019531 36.570312 42.800781 36.570312 42.574219 C 36.570312 42.339844 36.484375 42.136719 36.320312 41.96875 C 36.152344 41.800781 35.949219 41.71875 35.714844 41.71875 C 35.488281 41.71875 35.269531 41.675781 35.058594 41.585938 C 34.851562 41.5 34.667969 41.375 34.503906 41.214844 C 34.34375 41.054688 34.222656 40.871094 34.132812 40.660156 C 34.046875 40.453125 34.003906 40.234375 34.003906 40.007812 L 34.003906 22.898438 C 34.003906 22.671875 34.046875 22.453125 34.132812 22.246094 C 34.222656 22.035156 34.34375 21.851562 34.503906 21.691406 C 34.667969 21.53125 34.851562 21.40625 35.058594 21.320312 C 35.269531 21.230469 35.488281 21.1875 35.714844 21.1875 C 35.949219 21.1875 36.152344 21.105469 36.320312 20.9375 C 36.484375 20.769531 36.570312 20.566406 36.570312 20.332031 C 36.570312 20.105469 36.613281 19.886719 36.699219 19.679688 C 36.789062 19.46875 36.910156 19.285156 37.070312 19.125 C 37.234375 18.964844 37.417969 18.839844 37.625 18.753906 C 37.835938 18.664062 38.054688 18.621094 38.28125 18.621094 Z M 60.523438 18.621094 " fill-opacity="1" fill-rule="nonzero"/><path fill="#6c9722" d="M 60.523438 20.332031 L 60.523438 42.574219 L 38.28125 42.574219 C 38.28125 42.234375 38.214844 41.90625 38.085938 41.59375 C 37.953125 41.277344 37.769531 41 37.527344 40.757812 C 37.289062 40.519531 37.011719 40.332031 36.695312 40.203125 C 36.382812 40.074219 36.054688 40.007812 35.714844 40.007812 L 35.714844 22.898438 C 36.054688 22.898438 36.382812 22.832031 36.695312 22.703125 C 37.011719 22.574219 37.289062 22.386719 37.527344 22.148438 C 37.769531 21.90625 37.953125 21.628906 38.085938 21.3125 C 38.214844 21 38.28125 20.671875 38.28125 20.332031 Z M 60.523438 20.332031 " fill-opacity="1" fill-rule="nonzero"/><path fill="#8fc92f" d="M 58.8125 40.863281 L 39.632812 40.863281 C 39.183594 39.839844 38.449219 39.105469 37.425781 38.65625 L 37.425781 24.25 C 38.449219 23.800781 39.183594 23.066406 39.632812 22.042969 L 60.523438 22.042969 L 60.523438 20.332031 L 38.28125 20.332031 C 38.28125 20.671875 38.214844 21 38.085938 21.3125 C 37.953125 21.628906 37.769531 21.90625 37.527344 22.148438 C 37.289062 22.386719 37.011719 22.574219 36.695312 22.703125 C 36.382812 22.832031 36.054688 22.898438 35.714844 22.898438 L 35.714844 40.007812 C 36.054688 40.007812 36.382812 40.074219 36.695312 40.203125 C 37.011719 40.332031 37.289062 40.519531 37.527344 40.757812 C 37.769531 41 37.953125 41.277344 38.085938 41.59375 C 38.214844 41.90625 38.28125 42.234375 38.28125 42.574219 L 60.523438 42.574219 L 60.523438 40.863281 Z M 58.8125 40.863281 " fill-opacity="1" fill-rule="nonzero"/><path fill="#6c9722" d="M 60.523438 31.453125 C 60.523438 31.957031 60.472656 32.460938 60.375 32.957031 C 60.277344 33.449219 60.128906 33.933594 59.9375 34.398438 C 59.742188 34.867188 59.507812 35.308594 59.226562 35.730469 C 58.945312 36.152344 58.625 36.539062 58.269531 36.898438 C 57.910156 37.253906 57.519531 37.574219 57.101562 37.855469 C 56.679688 38.136719 56.238281 38.371094 55.769531 38.566406 C 55.304688 38.757812 54.820312 38.90625 54.324219 39.003906 C 53.828125 39.101562 53.328125 39.152344 52.824219 39.152344 C 52.316406 39.152344 51.816406 39.101562 51.320312 39.003906 C 50.824219 38.90625 50.34375 38.757812 49.878906 38.566406 C 49.410156 38.371094 48.964844 38.136719 48.546875 37.855469 C 48.125 37.574219 47.738281 37.253906 47.378906 36.898438 C 47.023438 36.539062 46.703125 36.152344 46.421875 35.730469 C 46.140625 35.308594 45.902344 34.867188 45.710938 34.398438 C 45.515625 33.933594 45.371094 33.449219 45.273438 32.957031 C 45.171875 32.460938 45.125 31.957031 45.125 31.453125 C 45.125 30.949219 45.171875 30.445312 45.273438 29.949219 C 45.371094 29.457031 45.515625 28.972656 45.710938 28.507812 C 45.902344 28.039062 46.140625 27.597656 46.421875 27.175781 C 46.703125 26.753906 47.023438 26.367188 47.378906 26.007812 C 47.738281 25.652344 48.125 25.332031 48.546875 25.050781 C 48.964844 24.769531 49.410156 24.535156 49.878906 24.339844 C 50.34375 24.148438 50.824219 24 51.320312 23.902344 C 51.816406 23.804688 52.316406 23.753906 52.824219 23.753906 C 53.328125 23.753906 53.828125 23.804688 54.324219 23.902344 C 54.820312 24 55.304688 24.148438 55.769531 24.339844 C 56.238281 24.535156 56.679688 24.769531 57.101562 25.050781 C 57.519531 25.332031 57.910156 25.652344 58.269531 26.007812 C 58.625 26.367188 58.945312 26.753906 59.226562 27.175781 C 59.507812 27.597656 59.742188 28.039062 59.9375 28.507812 C 60.128906 28.972656 60.277344 29.457031 60.375 29.949219 C 60.472656 30.445312 60.523438 30.949219 60.523438 31.453125 Z M 60.523438 31.453125 " fill-opacity="1" fill-rule="nonzero"/><path fill="#8fc92f" d="M 58.8125 31.453125 C 58.8125 31.847656 58.773438 32.234375 58.695312 32.621094 C 58.621094 33.007812 58.507812 33.382812 58.355469 33.746094 C 58.207031 34.109375 58.019531 34.453125 57.800781 34.78125 C 57.585938 35.105469 57.335938 35.410156 57.058594 35.6875 C 56.78125 35.964844 56.476562 36.214844 56.148438 36.433594 C 55.824219 36.652344 55.476562 36.835938 55.113281 36.984375 C 54.75 37.136719 54.378906 37.25 53.992188 37.328125 C 53.605469 37.402344 53.214844 37.441406 52.824219 37.441406 C 52.429688 37.441406 52.039062 37.402344 51.65625 37.328125 C 51.269531 37.25 50.894531 37.136719 50.53125 36.984375 C 50.167969 36.835938 49.824219 36.652344 49.496094 36.433594 C 49.167969 36.214844 48.867188 35.964844 48.589844 35.6875 C 48.3125 35.410156 48.0625 35.105469 47.84375 34.78125 C 47.625 34.453125 47.441406 34.109375 47.289062 33.746094 C 47.140625 33.382812 47.027344 33.007812 46.949219 32.621094 C 46.875 32.234375 46.835938 31.847656 46.835938 31.453125 C 46.835938 31.058594 46.875 30.671875 46.949219 30.285156 C 47.027344 29.898438 47.140625 29.523438 47.289062 29.160156 C 47.441406 28.796875 47.625 28.453125 47.84375 28.125 C 48.0625 27.800781 48.3125 27.496094 48.589844 27.21875 C 48.867188 26.941406 49.167969 26.691406 49.496094 26.472656 C 49.824219 26.253906 50.167969 26.070312 50.53125 25.921875 C 50.894531 25.769531 51.269531 25.65625 51.65625 25.578125 C 52.039062 25.503906 52.429688 25.464844 52.824219 25.464844 C 53.214844 25.464844 53.605469 25.503906 53.992188 25.578125 C 54.378906 25.65625 54.75 25.769531 55.113281 25.921875 C 55.476562 26.070312 55.824219 26.253906 56.148438 26.472656 C 56.476562 26.691406 56.78125 26.941406 57.058594 27.21875 C 57.335938 27.496094 57.585938 27.800781 57.800781 28.125 C 58.019531 28.453125 58.207031 28.796875 58.355469 29.160156 C 58.507812 29.523438 58.621094 29.898438 58.695312 30.285156 C 58.773438 30.671875 58.8125 31.058594 58.8125 31.453125 Z M 58.8125 31.453125 " fill-opacity="1" fill-rule="nonzero"/><path fill="#6c9722" d="M 52.824219 31.453125 C 52.585938 31.453125 52.386719 31.371094 52.21875 31.203125 C 52.050781 31.035156 51.96875 30.832031 51.96875 30.597656 C 51.96875 30.363281 52.050781 30.160156 52.21875 29.992188 C 52.386719 29.824219 52.585938 29.742188 52.824219 29.742188 C 53.058594 29.742188 53.261719 29.824219 53.429688 29.992188 C 53.59375 30.160156 53.679688 30.363281 53.679688 30.597656 C 53.679688 30.832031 53.761719 31.035156 53.929688 31.203125 C 54.097656 31.371094 54.296875 31.453125 54.535156 31.453125 C 54.769531 31.453125 54.972656 31.371094 55.140625 31.203125 C 55.304688 31.035156 55.390625 30.832031 55.390625 30.597656 C 55.386719 30.054688 55.230469 29.5625 54.914062 29.121094 C 54.601562 28.679688 54.191406 28.371094 53.679688 28.1875 L 53.679688 28.03125 C 53.679688 27.796875 53.59375 27.59375 53.429688 27.425781 C 53.261719 27.257812 53.058594 27.175781 52.824219 27.175781 C 52.585938 27.175781 52.386719 27.257812 52.21875 27.425781 C 52.050781 27.59375 51.96875 27.796875 51.96875 28.03125 L 51.96875 28.1875 C 51.683594 28.289062 51.421875 28.433594 51.191406 28.628906 C 50.957031 28.820312 50.765625 29.046875 50.609375 29.308594 C 50.457031 29.566406 50.355469 29.847656 50.300781 30.144531 C 50.246094 30.441406 50.242188 30.738281 50.296875 31.039062 C 50.347656 31.335938 50.449219 31.617188 50.597656 31.878906 C 50.75 32.140625 50.9375 32.367188 51.171875 32.5625 C 51.402344 32.757812 51.660156 32.90625 51.945312 33.011719 C 52.226562 33.113281 52.519531 33.164062 52.824219 33.164062 C 53.058594 33.164062 53.261719 33.246094 53.429688 33.414062 C 53.59375 33.582031 53.679688 33.785156 53.679688 34.019531 C 53.679688 34.253906 53.59375 34.457031 53.429688 34.625 C 53.261719 34.792969 53.058594 34.875 52.824219 34.875 C 52.585938 34.875 52.386719 34.792969 52.21875 34.625 C 52.050781 34.457031 51.96875 34.253906 51.96875 34.019531 C 51.96875 33.785156 51.882812 33.582031 51.71875 33.414062 C 51.550781 33.246094 51.347656 33.164062 51.113281 33.164062 C 50.875 33.164062 50.675781 33.246094 50.507812 33.414062 C 50.339844 33.582031 50.257812 33.785156 50.257812 34.019531 C 50.257812 34.5625 50.417969 35.054688 50.730469 35.496094 C 51.042969 35.9375 51.457031 36.246094 51.96875 36.429688 L 51.96875 36.585938 C 51.96875 36.820312 52.050781 37.023438 52.21875 37.191406 C 52.386719 37.359375 52.585938 37.441406 52.824219 37.441406 C 53.058594 37.441406 53.261719 37.359375 53.429688 37.191406 C 53.59375 37.023438 53.679688 36.820312 53.679688 36.585938 L 53.679688 36.429688 C 53.964844 36.328125 54.222656 36.183594 54.457031 35.988281 C 54.691406 35.796875 54.882812 35.570312 55.035156 35.308594 C 55.1875 35.050781 55.292969 34.769531 55.347656 34.472656 C 55.402344 34.175781 55.402344 33.878906 55.351562 33.578125 C 55.300781 33.28125 55.199219 33 55.050781 32.738281 C 54.898438 32.476562 54.707031 32.25 54.476562 32.054688 C 54.246094 31.859375 53.988281 31.710938 53.703125 31.605469 C 53.417969 31.503906 53.125 31.453125 52.824219 31.453125 Z M 52.824219 31.453125 " fill-opacity="1" fill-rule="nonzero"/><g clip-path="url(#cc5bf64cb7)"><path fill="#fdebdb" d="M 43.414062 35.730469 C 43.414062 36.070312 43.347656 36.398438 43.21875 36.710938 C 43.085938 37.027344 42.902344 37.304688 42.660156 37.546875 C 42.421875 37.785156 42.144531 37.972656 41.828125 38.101562 C 41.515625 38.230469 41.1875 38.296875 40.847656 38.296875 L 36.570312 38.296875 C 34.679688 38.296875 33.148438 39.441406 33.148438 40.863281 C 33.148438 46.066406 27.785156 50.273438 21.171875 50.273438 L 10.050781 50.273438 L 10.050781 39.152344 L 13.472656 39.152344 C 13.902344 39.148438 14.332031 39.105469 14.753906 39.015625 C 16.230469 38.683594 17.453125 37.933594 18.417969 36.765625 C 19.238281 35.757812 19.65625 34.4375 20.375 33.351562 C 21.082031 32.242188 21.949219 31.273438 22.976562 30.453125 C 24.976562 28.945312 27.226562 28.136719 29.726562 28.03125 L 32.292969 28.03125 L 32.292969 33.164062 L 40.847656 33.164062 C 41.1875 33.164062 41.515625 33.230469 41.828125 33.359375 C 42.144531 33.488281 42.421875 33.675781 42.660156 33.914062 C 42.902344 34.15625 43.085938 34.433594 43.21875 34.75 C 43.347656 35.0625 43.414062 35.390625 43.414062 35.730469 Z M 43.414062 35.730469 " fill-opacity="1" fill-rule="nonzero"/></g><g clip-path="url(#5ad2c0021d)"><path fill="#f0b2a3" d="M 43.414062 35.730469 C 43.414062 36.070312 43.347656 36.398438 43.21875 36.710938 C 43.085938 37.027344 42.902344 37.304688 42.660156 37.546875 C 42.421875 37.785156 42.144531 37.972656 41.828125 38.101562 C 41.515625 38.230469 41.1875 38.296875 40.847656 38.296875 L 36.570312 38.296875 C 34.679688 38.296875 33.148438 39.441406 33.148438 40.863281 C 33.148438 46.066406 27.785156 50.273438 21.171875 50.273438 L 10.050781 50.273438 L 10.050781 48.5625 L 21.171875 48.5625 C 26.835938 48.5625 31.4375 45.105469 31.4375 40.863281 C 31.4375 38.46875 33.695312 36.585938 36.570312 36.585938 L 40.847656 36.585938 C 41.082031 36.585938 41.285156 36.503906 41.453125 36.335938 C 41.617188 36.167969 41.703125 35.964844 41.703125 35.730469 C 41.703125 35.496094 41.617188 35.292969 41.453125 35.125 C 41.285156 34.957031 41.082031 34.875 40.847656 34.875 L 32.292969 34.875 C 30.128906 34.875 28.664062 35.6875 27.835938 37.347656 C 27.730469 37.542969 27.59375 37.710938 27.421875 37.855469 C 27.25 37.996094 27.058594 38.101562 26.847656 38.167969 C 26.636719 38.238281 26.417969 38.261719 26.195312 38.246094 C 25.976562 38.226562 25.765625 38.167969 25.566406 38.070312 C 25.367188 37.972656 25.195312 37.839844 25.046875 37.671875 C 24.898438 37.507812 24.789062 37.316406 24.714844 37.109375 C 24.640625 36.898438 24.609375 36.683594 24.617188 36.460938 C 24.628906 36.238281 24.679688 36.027344 24.773438 35.824219 C 26.183594 33 28.851562 31.453125 32.292969 31.453125 L 32.292969 33.164062 L 40.847656 33.164062 C 41.1875 33.164062 41.515625 33.230469 41.828125 33.359375 C 42.144531 33.488281 42.421875 33.675781 42.660156 33.914062 C 42.902344 34.15625 43.085938 34.433594 43.21875 34.75 C 43.347656 35.0625 43.414062 35.390625 43.414062 35.730469 Z M 43.414062 35.730469 " fill-opacity="1" fill-rule="nonzero"/></g><g clip-path="url(#f8a3e758e8)"><path fill="#f0b2a3" d="M 32.292969 28.03125 L 32.292969 29.742188 L 29.777344 29.742188 C 27.648438 29.835938 25.730469 30.523438 24.027344 31.804688 C 23.148438 32.503906 22.40625 33.332031 21.804688 34.285156 C 21.546875 34.699219 21.316406 35.125 21.109375 35.566406 C 20.738281 36.382812 20.28125 37.144531 19.734375 37.851562 C 18.523438 39.328125 16.988281 40.273438 15.121094 40.683594 C 14.578125 40.804688 14.027344 40.863281 13.472656 40.863281 L 10.050781 40.863281 L 10.050781 39.152344 L 13.472656 39.152344 C 13.902344 39.148438 14.332031 39.105469 14.753906 39.015625 C 16.230469 38.683594 17.453125 37.933594 18.417969 36.765625 C 19.238281 35.757812 19.65625 34.4375 20.375 33.351562 C 21.082031 32.242188 21.949219 31.273438 22.976562 30.453125 C 24.976562 28.945312 27.226562 28.136719 29.726562 28.03125 Z M 32.292969 28.03125 " fill-opacity="1" fill-rule="nonzero"/></g><g clip-path="url(#9d02795b65)"><path fill="#222325" d="M 21.171875 51.128906 L 10.90625 51.128906 C 10.667969 51.128906 10.46875 51.046875 10.300781 50.878906 C 10.132812 50.710938 10.050781 50.507812 10.050781 50.273438 C 10.050781 50.039062 10.132812 49.835938 10.300781 49.667969 C 10.46875 49.5 10.667969 49.417969 10.90625 49.417969 L 21.171875 49.417969 C 27.304688 49.417969 32.292969 45.582031 32.292969 40.863281 C 32.292969 38.976562 34.210938 37.441406 36.570312 37.441406 L 40.847656 37.441406 C 41.074219 37.441406 41.292969 37.398438 41.5 37.3125 C 41.710938 37.222656 41.894531 37.101562 42.058594 36.941406 C 42.21875 36.78125 42.339844 36.59375 42.425781 36.386719 C 42.515625 36.175781 42.558594 35.957031 42.558594 35.730469 C 42.558594 35.503906 42.515625 35.285156 42.425781 35.074219 C 42.339844 34.867188 42.21875 34.679688 42.058594 34.519531 C 41.894531 34.359375 41.710938 34.238281 41.5 34.148438 C 41.292969 34.0625 41.074219 34.019531 40.847656 34.019531 L 32.292969 34.019531 C 29.804688 34.019531 28.046875 35.011719 27.074219 36.96875 C 26.96875 37.179688 26.804688 37.324219 26.578125 37.398438 C 26.355469 37.472656 26.136719 37.457031 25.925781 37.351562 C 25.714844 37.246094 25.570312 37.082031 25.496094 36.855469 C 25.421875 36.632812 25.4375 36.414062 25.542969 36.203125 C 26.425781 34.425781 28.320312 32.308594 32.292969 32.308594 L 40.847656 32.308594 C 41.300781 32.308594 41.738281 32.394531 42.15625 32.570312 C 42.574219 32.742188 42.945312 32.988281 43.265625 33.3125 C 43.585938 33.632812 43.835938 34 44.007812 34.421875 C 44.183594 34.839844 44.269531 35.277344 44.269531 35.730469 C 44.269531 36.183594 44.183594 36.621094 44.007812 37.039062 C 43.835938 37.460938 43.585938 37.828125 43.265625 38.148438 C 42.945312 38.472656 42.574219 38.71875 42.15625 38.890625 C 41.738281 39.066406 41.300781 39.152344 40.847656 39.152344 L 36.570312 39.152344 C 35.179688 39.152344 34.003906 39.9375 34.003906 40.863281 C 34.003906 46.523438 28.246094 51.128906 21.171875 51.128906 Z M 21.171875 51.128906 " fill-opacity="1" fill-rule="nonzero"/></g><g clip-path="url(#a9886f43de)"><path fill="#222325" d="M 13.472656 40.007812 L 10.90625 40.007812 C 10.667969 40.007812 10.46875 39.925781 10.300781 39.757812 C 10.132812 39.589844 10.050781 39.386719 10.050781 39.152344 C 10.050781 38.917969 10.132812 38.714844 10.300781 38.546875 C 10.46875 38.378906 10.667969 38.296875 10.90625 38.296875 L 13.472656 38.296875 C 13.84375 38.296875 14.210938 38.257812 14.574219 38.175781 C 15.859375 37.894531 16.917969 37.246094 17.75 36.226562 C 18.167969 35.664062 18.523438 35.0625 18.8125 34.421875 C 19.0625 33.894531 19.34375 33.378906 19.65625 32.882812 C 20.414062 31.691406 21.347656 30.660156 22.453125 29.78125 C 24.589844 28.160156 26.996094 27.292969 29.675781 27.175781 L 32.292969 27.175781 C 32.527344 27.175781 32.730469 27.257812 32.898438 27.425781 C 33.0625 27.59375 33.148438 27.796875 33.148438 28.03125 C 33.148438 28.265625 33.0625 28.46875 32.898438 28.636719 C 32.730469 28.804688 32.527344 28.886719 32.292969 28.886719 L 29.726562 28.886719 C 27.417969 28.988281 25.34375 29.738281 23.503906 31.128906 C 22.546875 31.890625 21.742188 32.785156 21.085938 33.816406 C 20.8125 34.257812 20.566406 34.714844 20.34375 35.183594 C 20 35.941406 19.578125 36.648438 19.074219 37.308594 C 17.988281 38.632812 16.609375 39.480469 14.9375 39.847656 C 14.457031 39.953125 13.964844 40.007812 13.472656 40.007812 Z M 13.472656 40.007812 " fill-opacity="1" fill-rule="nonzero"/></g><path fill="#e6e4df" d="M 52.824219 35.730469 C 52.484375 35.730469 52.15625 35.664062 51.839844 35.535156 C 51.527344 35.40625 51.25 35.21875 51.007812 34.980469 C 50.769531 34.738281 50.582031 34.460938 50.453125 34.144531 C 50.320312 33.832031 50.257812 33.503906 50.257812 33.164062 C 50.257812 32.929688 50.339844 32.726562 50.507812 32.558594 C 50.675781 32.390625 50.875 32.308594 51.113281 32.308594 C 51.347656 32.308594 51.550781 32.390625 51.71875 32.558594 C 51.882812 32.726562 51.96875 32.929688 51.96875 33.164062 C 51.96875 33.398438 52.050781 33.601562 52.21875 33.769531 C 52.386719 33.9375 52.585938 34.019531 52.824219 34.019531 C 53.058594 34.019531 53.261719 33.9375 53.429688 33.769531 C 53.59375 33.601562 53.679688 33.398438 53.679688 33.164062 C 53.679688 32.929688 53.59375 32.726562 53.429688 32.558594 C 53.261719 32.390625 53.058594 32.308594 52.824219 32.308594 C 52.484375 32.308594 52.15625 32.242188 51.839844 32.113281 C 51.527344 31.984375 51.25 31.796875 51.007812 31.558594 C 50.769531 31.316406 50.582031 31.039062 50.453125 30.722656 C 50.320312 30.410156 50.257812 30.082031 50.257812 29.742188 C 50.257812 29.402344 50.320312 29.074219 50.453125 28.761719 C 50.582031 28.445312 50.769531 28.167969 51.007812 27.925781 C 51.25 27.6875 51.527344 27.5 51.839844 27.371094 C 52.15625 27.242188 52.484375 27.175781 52.824219 27.175781 C 53.164062 27.175781 53.492188 27.242188 53.804688 27.371094 C 54.121094 27.5 54.398438 27.6875 54.636719 27.925781 C 54.878906 28.167969 55.0625 28.445312 55.195312 28.761719 C 55.324219 29.074219 55.390625 29.402344 55.390625 29.742188 C 55.390625 29.976562 55.304688 30.179688 55.140625 30.347656 C 54.972656 30.515625 54.769531 30.597656 54.535156 30.597656 C 54.296875 30.597656 54.097656 30.515625 53.929688 30.347656 C 53.761719 30.179688 53.679688 29.976562 53.679688 29.742188 C 53.679688 29.507812 53.59375 29.304688 53.429688 29.136719 C 53.261719 28.96875 53.058594 28.886719 52.824219 28.886719 C 52.585938 28.886719 52.386719 28.96875 52.21875 29.136719 C 52.050781 29.304688 51.96875 29.507812 51.96875 29.742188 C 51.96875 29.976562 52.050781 30.179688 52.21875 30.347656 C 52.386719 30.515625 52.585938 30.597656 52.824219 30.597656 C 53.164062 30.597656 53.492188 30.664062 53.804688 30.792969 C 54.121094 30.921875 54.398438 31.109375 54.636719 31.347656 C 54.878906 31.589844 55.0625 31.867188 55.195312 32.183594 C 55.324219 32.496094 55.390625 32.824219 55.390625 33.164062 C 55.390625 33.503906 55.324219 33.832031 55.195312 34.144531 C 55.0625 34.460938 54.878906 34.738281 54.636719 34.980469 C 54.398438 35.21875 54.121094 35.40625 53.804688 35.535156 C 53.492188 35.664062 53.164062 35.730469 52.824219 35.730469 Z M 52.824219 35.730469 " fill-opacity="1" fill-rule="nonzero"/><path fill="#e6e4df" d="M 52.824219 28.886719 C 52.585938 28.886719 52.386719 28.804688 52.21875 28.636719 C 52.050781 28.46875 51.96875 28.265625 51.96875 28.03125 L 51.96875 27.175781 C 51.96875 26.941406 52.050781 26.738281 52.21875 26.570312 C 52.386719 26.402344 52.585938 26.320312 52.824219 26.320312 C 53.058594 26.320312 53.261719 26.402344 53.429688 26.570312 C 53.59375 26.738281 53.679688 26.941406 53.679688 27.175781 L 53.679688 28.03125 C 53.679688 28.265625 53.59375 28.46875 53.429688 28.636719 C 53.261719 28.804688 53.058594 28.886719 52.824219 28.886719 Z M 52.824219 28.886719 " fill-opacity="1" fill-rule="nonzero"/><path fill="#e6e4df" d="M 52.824219 36.585938 C 52.585938 36.585938 52.386719 36.503906 52.21875 36.335938 C 52.050781 36.167969 51.96875 35.964844 51.96875 35.730469 L 51.96875 34.875 C 51.96875 34.640625 52.050781 34.4375 52.21875 34.269531 C 52.386719 34.101562 52.585938 34.019531 52.824219 34.019531 C 53.058594 34.019531 53.261719 34.101562 53.429688 34.269531 C 53.59375 34.4375 53.679688 34.640625 53.679688 34.875 L 53.679688 35.730469 C 53.679688 35.964844 53.59375 36.167969 53.429688 36.335938 C 53.261719 36.503906 53.058594 36.585938 52.824219 36.585938 Z M 52.824219 36.585938 " fill-opacity="1" fill-rule="nonzero"/><path fill="#222325" d="M 60.523438 43.429688 L 38.28125 43.429688 C 38.042969 43.429688 37.84375 43.347656 37.675781 43.179688 C 37.507812 43.011719 37.425781 42.808594 37.425781 42.574219 C 37.425781 42.347656 37.382812 42.128906 37.292969 41.917969 C 37.207031 41.710938 37.085938 41.523438 36.925781 41.363281 C 36.761719 41.203125 36.578125 41.082031 36.367188 40.992188 C 36.160156 40.90625 35.941406 40.863281 35.714844 40.863281 C 35.476562 40.863281 35.277344 40.78125 35.109375 40.613281 C 34.941406 40.445312 34.859375 40.242188 34.859375 40.007812 L 34.859375 39.152344 C 34.859375 38.917969 34.941406 38.714844 35.109375 38.546875 C 35.277344 38.378906 35.476562 38.296875 35.714844 38.296875 C 35.949219 38.296875 36.152344 38.378906 36.320312 38.546875 C 36.484375 38.714844 36.570312 38.917969 36.570312 39.152344 L 36.570312 39.261719 C 37.171875 39.417969 37.691406 39.714844 38.132812 40.15625 C 38.574219 40.59375 38.871094 41.117188 39.027344 41.71875 L 59.667969 41.71875 L 59.667969 21.1875 L 39.027344 21.1875 C 38.871094 21.789062 38.574219 22.3125 38.132812 22.75 C 37.691406 23.191406 37.171875 23.488281 36.570312 23.644531 L 36.570312 33.164062 C 36.570312 33.398438 36.484375 33.601562 36.320312 33.769531 C 36.152344 33.9375 35.949219 34.019531 35.714844 34.019531 C 35.476562 34.019531 35.277344 33.9375 35.109375 33.769531 C 34.941406 33.601562 34.859375 33.398438 34.859375 33.164062 L 34.859375 22.898438 C 34.859375 22.664062 34.941406 22.460938 35.109375 22.292969 C 35.277344 22.125 35.476562 22.042969 35.714844 22.042969 C 35.941406 22.042969 36.160156 22 36.367188 21.914062 C 36.578125 21.824219 36.761719 21.703125 36.925781 21.542969 C 37.085938 21.382812 37.207031 21.195312 37.292969 20.988281 C 37.382812 20.777344 37.425781 20.558594 37.425781 20.332031 C 37.425781 20.097656 37.507812 19.894531 37.675781 19.726562 C 37.84375 19.558594 38.042969 19.476562 38.28125 19.476562 L 60.523438 19.476562 C 60.757812 19.476562 60.960938 19.558594 61.128906 19.726562 C 61.292969 19.894531 61.378906 20.097656 61.378906 20.332031 L 61.378906 42.574219 C 61.378906 42.808594 61.292969 43.011719 61.128906 43.179688 C 60.960938 43.347656 60.757812 43.429688 60.523438 43.429688 Z M 60.523438 43.429688 " fill-opacity="1" fill-rule="nonzero"/><path fill="#222325" d="M 60.523438 46.851562 L 32.292969 46.851562 C 32.054688 46.851562 31.855469 46.769531 31.6875 46.601562 C 31.519531 46.433594 31.4375 46.230469 31.4375 45.996094 L 31.4375 44.285156 L 33.148438 44.285156 L 33.148438 45.140625 L 59.667969 45.140625 L 59.667969 17.765625 L 33.148438 17.765625 L 33.148438 33.164062 L 31.4375 33.164062 L 31.4375 16.910156 C 31.4375 16.675781 31.519531 16.472656 31.6875 16.304688 C 31.855469 16.136719 32.054688 16.054688 32.292969 16.054688 L 60.523438 16.054688 C 60.757812 16.054688 60.960938 16.136719 61.128906 16.304688 C 61.292969 16.472656 61.378906 16.675781 61.378906 16.910156 L 61.378906 45.996094 C 61.378906 46.230469 61.292969 46.433594 61.128906 46.601562 C 60.960938 46.769531 60.757812 46.851562 60.523438 46.851562 Z M 60.523438 46.851562 " fill-opacity="1" fill-rule="nonzero"/><path fill="#222325" d="M 52.824219 40.007812 C 52.261719 40.007812 51.707031 39.953125 51.15625 39.84375 C 50.605469 39.734375 50.070312 39.570312 49.550781 39.355469 C 49.03125 39.140625 48.539062 38.878906 48.070312 38.566406 C 47.605469 38.253906 47.171875 37.898438 46.773438 37.503906 C 46.378906 37.105469 46.023438 36.671875 45.710938 36.207031 C 45.398438 35.738281 45.136719 35.246094 44.921875 34.726562 C 44.703125 34.207031 44.542969 33.671875 44.433594 33.121094 C 44.324219 32.570312 44.269531 32.015625 44.269531 31.453125 C 44.269531 30.890625 44.324219 30.335938 44.433594 29.785156 C 44.542969 29.234375 44.703125 28.699219 44.921875 28.179688 C 45.136719 27.660156 45.398438 27.167969 45.710938 26.699219 C 46.023438 26.234375 46.378906 25.800781 46.773438 25.402344 C 47.171875 25.007812 47.605469 24.652344 48.070312 24.339844 C 48.539062 24.027344 49.03125 23.765625 49.550781 23.550781 C 50.070312 23.335938 50.605469 23.171875 51.15625 23.0625 C 51.707031 22.953125 52.261719 22.898438 52.824219 22.898438 C 53.386719 22.898438 53.941406 22.953125 54.492188 23.0625 C 55.042969 23.171875 55.578125 23.335938 56.097656 23.550781 C 56.617188 23.765625 57.109375 24.027344 57.574219 24.339844 C 58.042969 24.652344 58.476562 25.007812 58.871094 25.402344 C 59.269531 25.800781 59.625 26.234375 59.9375 26.699219 C 60.25 27.167969 60.511719 27.660156 60.726562 28.179688 C 60.941406 28.699219 61.105469 29.234375 61.214844 29.785156 C 61.324219 30.335938 61.378906 30.890625 61.378906 31.453125 C 61.378906 32.015625 61.320312 32.570312 61.210938 33.121094 C 61.101562 33.671875 60.941406 34.207031 60.722656 34.726562 C 60.507812 35.242188 60.246094 35.738281 59.933594 36.203125 C 59.621094 36.671875 59.265625 37.101562 58.871094 37.5 C 58.472656 37.898438 58.039062 38.25 57.574219 38.5625 C 57.105469 38.875 56.613281 39.140625 56.097656 39.355469 C 55.578125 39.570312 55.042969 39.730469 54.492188 39.84375 C 53.941406 39.953125 53.386719 40.007812 52.824219 40.007812 Z M 52.824219 24.609375 C 52.375 24.609375 51.929688 24.652344 51.488281 24.742188 C 51.046875 24.828125 50.621094 24.957031 50.203125 25.128906 C 49.789062 25.300781 49.394531 25.511719 49.019531 25.761719 C 48.648438 26.011719 48.300781 26.296875 47.984375 26.613281 C 47.667969 26.929688 47.382812 27.277344 47.132812 27.652344 C 46.882812 28.023438 46.671875 28.417969 46.5 28.835938 C 46.328125 29.25 46.199219 29.675781 46.109375 30.117188 C 46.023438 30.558594 45.980469 31.003906 45.980469 31.453125 C 45.980469 31.902344 46.023438 32.347656 46.109375 32.789062 C 46.199219 33.230469 46.328125 33.65625 46.5 34.070312 C 46.671875 34.488281 46.882812 34.882812 47.132812 35.253906 C 47.382812 35.628906 47.667969 35.976562 47.984375 36.292969 C 48.300781 36.609375 48.648438 36.894531 49.019531 37.144531 C 49.394531 37.394531 49.789062 37.605469 50.203125 37.777344 C 50.621094 37.949219 51.046875 38.078125 51.488281 38.164062 C 51.929688 38.253906 52.375 38.296875 52.824219 38.296875 C 53.273438 38.296875 53.71875 38.253906 54.160156 38.164062 C 54.597656 38.078125 55.027344 37.949219 55.441406 37.777344 C 55.859375 37.605469 56.253906 37.394531 56.625 37.144531 C 57 36.894531 57.34375 36.609375 57.664062 36.292969 C 57.980469 35.976562 58.265625 35.628906 58.515625 35.253906 C 58.761719 34.882812 58.972656 34.488281 59.144531 34.070312 C 59.316406 33.65625 59.449219 33.230469 59.535156 32.789062 C 59.625 32.347656 59.667969 31.902344 59.667969 31.453125 C 59.667969 31.003906 59.621094 30.558594 59.535156 30.117188 C 59.445312 29.679688 59.316406 29.25 59.144531 28.835938 C 58.972656 28.421875 58.761719 28.027344 58.511719 27.652344 C 58.261719 27.28125 57.976562 26.933594 57.660156 26.617188 C 57.34375 26.296875 56.996094 26.015625 56.625 25.765625 C 56.25 25.515625 55.855469 25.304688 55.441406 25.132812 C 55.027344 24.960938 54.597656 24.832031 54.15625 24.742188 C 53.71875 24.652344 53.273438 24.609375 52.824219 24.609375 Z M 52.824219 24.609375 " fill-opacity="1" fill-rule="nonzero"/><path fill="#222325" d="M 58.8125 51.128906 C 58.472656 51.128906 58.144531 51.0625 57.828125 50.933594 C 57.515625 50.804688 57.238281 50.617188 56.996094 50.378906 C 56.757812 50.136719 56.570312 49.859375 56.441406 49.542969 C 56.308594 49.230469 56.246094 48.902344 56.246094 48.5625 L 56.246094 45.996094 C 56.246094 45.761719 56.328125 45.558594 56.496094 45.390625 C 56.664062 45.222656 56.863281 45.140625 57.101562 45.140625 C 57.335938 45.140625 57.539062 45.222656 57.707031 45.390625 C 57.871094 45.558594 57.957031 45.761719 57.957031 45.996094 L 57.957031 48.5625 C 57.957031 48.796875 58.039062 49 58.207031 49.167969 C 58.375 49.335938 58.574219 49.417969 58.8125 49.417969 C 59.046875 49.417969 59.25 49.335938 59.417969 49.167969 C 59.582031 49 59.667969 48.796875 59.667969 48.5625 L 59.667969 14.34375 C 59.667969 14.109375 59.582031 13.90625 59.417969 13.738281 C 59.25 13.570312 59.046875 13.488281 58.8125 13.488281 C 58.574219 13.488281 58.375 13.570312 58.207031 13.738281 C 58.039062 13.90625 57.957031 14.109375 57.957031 14.34375 L 57.957031 16.910156 C 57.957031 17.144531 57.871094 17.347656 57.707031 17.515625 C 57.539062 17.683594 57.335938 17.765625 57.101562 17.765625 C 56.863281 17.765625 56.664062 17.683594 56.496094 17.515625 C 56.328125 17.347656 56.246094 17.144531 56.246094 16.910156 L 56.246094 14.34375 C 56.246094 14.003906 56.308594 13.675781 56.441406 13.363281 C 56.570312 13.046875 56.757812 12.769531 56.996094 12.527344 C 57.238281 12.289062 57.515625 12.101562 57.828125 11.972656 C 58.144531 11.84375 58.472656 11.777344 58.8125 11.777344 C 59.152344 11.777344 59.480469 11.84375 59.792969 11.972656 C 60.109375 12.101562 60.386719 12.289062 60.625 12.527344 C 60.867188 12.769531 61.050781 13.046875 61.183594 13.363281 C 61.3125 13.675781 61.378906 14.003906 61.378906 14.34375 L 61.378906 48.5625 C 61.378906 48.902344 61.3125 49.230469 61.183594 49.542969 C 61.050781 49.859375 60.867188 50.136719 60.625 50.378906 C 60.386719 50.617188 60.109375 50.804688 59.792969 50.933594 C 59.480469 51.0625 59.152344 51.128906 58.8125 51.128906 Z M 58.8125 51.128906 " fill-opacity="1" fill-rule="nonzero"/><g clip-path="url(#1c205e45dd)"><path fill="#222325" d="M 63.945312 62.25 L 53.679688 62.25 C 53.441406 62.25 53.242188 62.167969 53.074219 62 C 52.90625 61.832031 52.824219 61.628906 52.824219 61.394531 L 52.824219 45.996094 C 52.824219 45.761719 52.90625 45.558594 53.074219 45.390625 C 53.242188 45.222656 53.441406 45.140625 53.679688 45.140625 C 53.914062 45.140625 54.117188 45.222656 54.285156 45.390625 C 54.449219 45.558594 54.535156 45.761719 54.535156 45.996094 L 54.535156 60.539062 L 63.089844 60.539062 L 63.089844 9.210938 L 54.535156 9.210938 L 54.535156 16.910156 C 54.535156 17.144531 54.449219 17.347656 54.285156 17.515625 C 54.117188 17.683594 53.914062 17.765625 53.679688 17.765625 C 53.441406 17.765625 53.242188 17.683594 53.074219 17.515625 C 52.90625 17.347656 52.824219 17.144531 52.824219 16.910156 L 52.824219 8.355469 C 52.824219 8.121094 52.90625 7.917969 53.074219 7.75 C 53.242188 7.582031 53.441406 7.5 53.679688 7.5 L 63.945312 7.5 C 64.179688 7.5 64.382812 7.582031 64.550781 7.75 C 64.714844 7.917969 64.800781 8.121094 64.800781 8.355469 L 64.800781 61.394531 C 64.800781 61.628906 64.714844 61.832031 64.550781 62 C 64.382812 62.167969 64.179688 62.25 63.945312 62.25 Z M 63.945312 62.25 " fill-opacity="1" fill-rule="nonzero"/></g></svg>