<svg xmlns="http://www.w3.org/2000/svg" xmlns:xlink="http://www.w3.org/1999/xlink" width="100" zoomAndPan="magnify" viewBox="0 0 75 74.999997" height="100" preserveAspectRatio="xMidYMid meet" version="1.0"><defs><clipPath id="e555bc8d17"><path d="M 19 24 L 53 24 L 53 63.976562 L 19 63.976562 Z M 19 24 " clip-rule="nonzero"/></clipPath><clipPath id="bd821b875d"><path d="M 49 15 L 63.976562 15 L 63.976562 44 L 49 44 Z M 49 15 " clip-rule="nonzero"/></clipPath><clipPath id="9f61091618"><path d="M 10.726562 14 L 53 14 L 53 63.976562 L 10.726562 63.976562 Z M 10.726562 14 " clip-rule="nonzero"/></clipPath><clipPath id="23ffbd32ae"><path d="M 49 14 L 63.976562 14 L 63.976562 44 L 49 44 Z M 49 14 " clip-rule="nonzero"/></clipPath><clipPath id="0078d71f3c"><path d="M 53 10.726562 L 60 10.726562 L 60 12 L 53 12 Z M 53 10.726562 " clip-rule="nonzero"/></clipPath></defs><path fill="#8ecaef" d="M 11.148438 14.589844 L 11.148438 22.792969 L 44.394531 22.792969 L 44.394531 14.589844 Z M 11.148438 14.589844 " fill-opacity="1" fill-rule="nonzero"/><g clip-path="url(#e555bc8d17)"><path fill="#ffd7d2" d="M 47.308594 33.976562 C 45.894531 29.0625 40.5 24.445312 40.5 24.445312 L 30.234375 30.625 C 28.648438 29.085938 23.554688 32.167969 19.070312 35.910156 L 22.035156 42.597656 C 23.886719 44.734375 26.734375 46.1875 27.859375 48.636719 C 28.4375 49.886719 29.316406 50.667969 29.585938 51.976562 C 29.765625 52.867188 32.582031 52.777344 32.707031 53.632812 C 32.984375 55.53125 33.210938 57.292969 33.753906 58.667969 C 34.910156 61.578125 38.304688 63.535156 38.304688 63.535156 L 52.253906 63.535156 C 52.253906 63.535156 48.722656 38.890625 47.308594 33.976562 Z M 47.308594 33.976562 " fill-opacity="1" fill-rule="nonzero"/></g><path fill="#6fceae" d="M 38.71875 39.101562 C 38.503906 40.226562 38.253906 41.359375 37.976562 42.496094 C 35.75 39.460938 33.378906 36.699219 30.839844 34.230469 C 29.253906 32.691406 26.683594 32.859375 25.332031 34.605469 L 25.332031 34.609375 C 24.25 36 24.304688 37.960938 25.457031 39.292969 C 27.308594 41.433594 29.925781 44.679688 31.050781 47.125 C 31.625 48.375 31.992188 49.695312 32.261719 51.003906 L 30.785156 51.152344 L 19.289062 52.300781 C 19.289062 50.601562 17.375 48.527344 15.675781 48.527344 L 16.195312 18.691406 L 37.976562 18.691406 C 40.140625 25.230469 40.058594 32.078125 38.71875 39.101562 Z M 38.71875 39.101562 " fill-opacity="1" fill-rule="nonzero"/><g clip-path="url(#bd821b875d)"><path fill="#c84242" d="M 63.519531 34.925781 L 56.546875 43.078125 L 49.570312 34.925781 L 54.125 34.925781 L 54.125 15.402344 L 58.96875 15.402344 L 58.96875 34.925781 Z M 63.519531 34.925781 " fill-opacity="1" fill-rule="nonzero"/></g><path fill="#53b79a" d="M 25.332031 34.609375 C 24.25 36 24.304688 37.960938 25.457031 39.292969 C 27.308594 41.433594 29.925781 44.679688 31.050781 47.125 C 31.625 48.378906 31.992188 49.695312 32.261719 51.003906 L 30.785156 51.152344 C 30.636719 49.277344 30.105469 47.222656 28.074219 45.398438 C 20.6875 38.769531 22.707031 31.867188 28.453125 31.867188 C 31.792969 31.867188 35.882812 35.011719 38.71875 39.101562 C 38.503906 40.226562 38.253906 41.359375 37.976562 42.496094 C 35.75 39.460938 33.378906 36.699219 30.839844 34.230469 C 29.253906 32.691406 26.683594 32.859375 25.332031 34.605469 Z M 25.332031 34.609375 " fill-opacity="1" fill-rule="nonzero"/><path fill="#349370" d="M 33.695312 18.691406 C 33.804688 19.144531 33.859375 19.613281 33.859375 20.097656 C 33.859375 23.460938 31.132812 26.1875 27.769531 26.1875 C 24.40625 26.1875 21.679688 23.460938 21.679688 20.097656 C 21.679688 19.613281 21.738281 19.144531 21.84375 18.691406 Z M 33.695312 18.691406 " fill-opacity="1" fill-rule="nonzero"/><path fill="#349370" d="M 32.707031 53.632812 L 15.039062 53.632812 L 15.039062 18.691406 L 17.5625 18.691406 L 17.5625 47.929688 C 19.261719 47.929688 20.640625 49.304688 20.640625 51.003906 L 32.261719 51.003906 C 32.441406 51.890625 32.582031 52.777344 32.707031 53.632812 Z M 32.707031 53.632812 " fill-opacity="1" fill-rule="nonzero"/><path fill="#349370" d="M 40.5 24.445312 L 40.5 46.144531 C 39.683594 44.886719 38.839844 43.671875 37.976562 42.496094 L 37.976562 18.691406 L 40.5 18.691406 Z M 40.5 24.445312 " fill-opacity="1" fill-rule="nonzero"/><g clip-path="url(#9f61091618)"><path fill="#3a322b" d="M 47.714844 33.859375 C 46.394531 29.28125 41.824219 25.050781 40.925781 24.253906 L 40.925781 23.214844 L 44.394531 23.214844 C 44.625 23.214844 44.816406 23.027344 44.816406 22.792969 L 44.816406 14.589844 C 44.816406 14.355469 44.625 14.167969 44.394531 14.167969 L 11.148438 14.167969 C 10.914062 14.167969 10.726562 14.355469 10.726562 14.589844 L 10.726562 22.792969 C 10.726562 23.027344 10.914062 23.214844 11.148438 23.214844 L 14.617188 23.214844 L 14.617188 53.632812 C 14.617188 53.867188 14.804688 54.054688 15.039062 54.054688 L 32.339844 54.054688 C 32.597656 55.820312 32.832031 57.492188 33.363281 58.824219 C 34.558594 61.835938 37.949219 63.820312 38.09375 63.902344 C 38.160156 63.941406 38.234375 63.960938 38.304688 63.960938 C 38.449219 63.960938 38.59375 63.882812 38.671875 63.746094 C 38.789062 63.546875 38.71875 63.289062 38.515625 63.171875 C 38.484375 63.152344 35.234375 61.246094 34.148438 58.511719 C 33.664062 57.296875 33.433594 55.714844 33.191406 54.042969 C 33.046875 53.046875 32.894531 51.996094 32.675781 50.929688 C 32.675781 50.921875 32.671875 50.914062 32.671875 50.910156 C 32.398438 49.578125 32.023438 48.230469 31.433594 46.949219 C 30.304688 44.492188 27.734375 41.277344 25.773438 39.015625 C 24.757812 37.839844 24.710938 36.09375 25.664062 34.867188 C 26.234375 34.132812 27.09375 33.671875 28.019531 33.609375 C 28.949219 33.542969 29.871094 33.878906 30.546875 34.535156 C 33.863281 37.757812 37.019531 41.628906 39.925781 46.035156 C 40.058594 46.234375 40.304688 46.328125 40.535156 46.257812 C 40.765625 46.1875 40.925781 45.976562 40.925781 45.738281 L 40.925781 25.40625 C 42.410156 26.824219 45.839844 30.402344 46.902344 34.09375 C 48.292969 38.925781 51.800781 63.351562 51.835938 63.597656 C 51.863281 63.808594 52.046875 63.960938 52.253906 63.960938 C 52.273438 63.960938 52.292969 63.957031 52.3125 63.953125 C 52.542969 63.921875 52.703125 63.707031 52.671875 63.476562 C 52.527344 62.46875 49.121094 38.746094 47.714844 33.859375 Z M 32.214844 53.210938 L 15.460938 53.210938 L 15.460938 19.113281 L 17.140625 19.113281 L 17.140625 47.929688 C 17.140625 48.160156 17.328125 48.351562 17.5625 48.351562 C 19.027344 48.351562 20.214844 49.539062 20.214844 51.003906 C 20.214844 51.238281 20.40625 51.425781 20.640625 51.425781 L 31.914062 51.425781 C 32.03125 52.027344 32.128906 52.625 32.214844 53.210938 Z M 37.554688 41.226562 C 35.503906 38.53125 33.355469 36.089844 31.132812 33.929688 C 30.289062 33.105469 29.132812 32.683594 27.960938 32.765625 C 26.792969 32.847656 25.714844 33.425781 24.996094 34.347656 C 23.796875 35.894531 23.855469 38.089844 25.136719 39.570312 C 27.058594 41.789062 29.578125 44.933594 30.667969 47.300781 C 31.148438 48.355469 31.484375 49.46875 31.734375 50.582031 L 21.035156 50.582031 C 20.84375 48.988281 19.578125 47.722656 17.984375 47.53125 L 17.984375 19.113281 L 21.335938 19.113281 C 21.285156 19.4375 21.257812 19.765625 21.257812 20.097656 C 21.257812 23.6875 24.179688 26.609375 27.769531 26.609375 C 31.359375 26.609375 34.28125 23.6875 34.28125 20.097656 C 34.28125 19.765625 34.253906 19.4375 34.207031 19.113281 L 37.554688 19.113281 Z M 22.105469 20.097656 C 22.105469 19.765625 22.132812 19.4375 22.1875 19.113281 L 33.351562 19.113281 C 33.410156 19.4375 33.4375 19.765625 33.4375 20.097656 C 33.4375 23.222656 30.894531 25.761719 27.769531 25.761719 C 24.644531 25.761719 22.105469 23.222656 22.105469 20.097656 Z M 40.078125 44.746094 C 39.527344 43.933594 38.96875 43.136719 38.398438 42.359375 L 38.398438 19.113281 L 40.078125 19.113281 Z M 13.613281 18.269531 C 13.378906 18.269531 13.191406 18.457031 13.191406 18.691406 C 13.191406 18.925781 13.378906 19.113281 13.613281 19.113281 L 14.617188 19.113281 L 14.617188 22.371094 L 11.570312 22.371094 L 11.570312 15.011719 L 43.972656 15.011719 L 43.972656 22.371094 L 40.925781 22.371094 L 40.925781 19.113281 L 41.925781 19.113281 C 42.160156 19.113281 42.351562 18.925781 42.351562 18.691406 C 42.351562 18.457031 42.160156 18.269531 41.925781 18.269531 Z M 13.613281 18.269531 " fill-opacity="1" fill-rule="nonzero"/></g><g clip-path="url(#23ffbd32ae)"><path fill="#3a322b" d="M 63.90625 34.746094 C 63.835938 34.597656 63.6875 34.503906 63.519531 34.503906 L 59.390625 34.503906 L 59.390625 15.402344 C 59.390625 15.167969 59.199219 14.980469 58.96875 14.980469 L 54.121094 14.980469 C 53.890625 14.980469 53.699219 15.167969 53.699219 15.402344 L 53.699219 34.503906 L 49.570312 34.503906 C 49.40625 34.503906 49.253906 34.597656 49.1875 34.746094 C 49.117188 34.898438 49.140625 35.074219 49.25 35.199219 L 56.222656 43.351562 C 56.304688 43.445312 56.421875 43.5 56.546875 43.5 C 56.667969 43.5 56.785156 43.445312 56.867188 43.351562 L 63.84375 35.199219 C 63.949219 35.074219 63.972656 34.898438 63.90625 34.746094 Z M 56.546875 42.429688 L 50.488281 35.347656 L 54.121094 35.347656 C 54.355469 35.347656 54.546875 35.15625 54.546875 34.925781 L 54.546875 15.824219 L 58.546875 15.824219 L 58.546875 34.925781 C 58.546875 35.15625 58.734375 35.347656 58.96875 35.347656 L 62.605469 35.347656 Z M 56.546875 42.429688 " fill-opacity="1" fill-rule="nonzero"/></g><path fill="#3a322b" d="M 54.121094 13.703125 L 58.96875 13.703125 C 59.199219 13.703125 59.390625 13.515625 59.390625 13.28125 C 59.390625 13.050781 59.199219 12.859375 58.96875 12.859375 L 54.121094 12.859375 C 53.890625 12.859375 53.699219 13.050781 53.699219 13.28125 C 53.699219 13.515625 53.890625 13.703125 54.121094 13.703125 Z M 54.121094 13.703125 " fill-opacity="1" fill-rule="nonzero"/><g clip-path="url(#0078d71f3c)"><path fill="#3a322b" d="M 54.121094 11.585938 L 58.96875 11.585938 C 59.199219 11.585938 59.390625 11.394531 59.390625 11.164062 C 59.390625 10.929688 59.199219 10.742188 58.96875 10.742188 L 54.121094 10.742188 C 53.890625 10.742188 53.699219 10.929688 53.699219 11.164062 C 53.699219 11.394531 53.890625 11.585938 54.121094 11.585938 Z M 54.121094 11.585938 " fill-opacity="1" fill-rule="nonzero"/></g></svg>