<svg xmlns="http://www.w3.org/2000/svg" xmlns:xlink="http://www.w3.org/1999/xlink" width="100" zoomAndPan="magnify" viewBox="0 0 75 74.999997" height="100" preserveAspectRatio="xMidYMid meet" version="1.0"><defs><clipPath id="a8c65984f3"><path d="M 11 10 L 63.988281 10 L 63.988281 66.550781 L 11 66.550781 Z M 11 10 " clip-rule="nonzero"/></clipPath><clipPath id="db798d3d68"><path d="M 10.738281 8.800781 L 63 8.800781 L 63 66 L 10.738281 66 Z M 10.738281 8.800781 " clip-rule="nonzero"/></clipPath></defs><g clip-path="url(#a8c65984f3)"><path fill="#ced3db" d="M 34.9375 12.410156 L 47.984375 12.410156 C 49.367188 12.410156 50.507812 13.546875 50.507812 14.960938 L 50.507812 17.152344 C 54.910156 18.535156 58.058594 22.695312 58.058594 27.535156 C 58.058594 32.378906 54.910156 36.539062 50.507812 37.917969 L 50.507812 41.882812 C 50.539062 41.835938 50.585938 41.769531 50.617188 41.722656 L 55.648438 35.253906 L 55.871094 34.960938 L 56.691406 33.90625 C 57.800781 32.476562 59.859375 32.167969 61.273438 33.304688 L 62.414062 34.214844 C 63.761719 35.285156 63.988281 37.238281 63.054688 38.648438 C 63.085938 39.285156 62.894531 39.949219 62.476562 40.484375 L 58.941406 45.019531 C 58.78125 45.214844 58.621094 45.378906 58.410156 45.523438 L 58.316406 45.589844 C 58.105469 45.734375 57.914062 45.832031 57.6875 45.914062 L 57.285156 46.058594 L 56.820312 46.660156 C 56.597656 46.953125 56.324219 47.195312 56 47.359375 L 50.472656 54.460938 L 50.472656 63.996094 C 50.472656 65.394531 49.347656 66.546875 47.953125 66.546875 L 14.496094 66.546875 C 13.117188 66.546875 11.976562 65.410156 11.976562 63.996094 L 11.976562 14.976562 C 11.976562 13.578125 13.097656 12.425781 14.496094 12.425781 L 27.542969 12.425781 C 28.203125 11.027344 29.601562 10.070312 31.222656 10.070312 C 32.847656 10.070312 34.261719 11.027344 34.902344 12.425781 Z M 34.9375 12.410156 " fill-opacity="1" fill-rule="evenodd"/></g><g clip-path="url(#db798d3d68)"><path fill="#ffffff" d="M 33.683594 11.140625 L 46.730469 11.140625 C 48.113281 11.140625 49.253906 12.277344 49.253906 13.691406 L 49.253906 15.886719 C 53.65625 17.265625 56.804688 21.425781 56.804688 26.269531 C 56.804688 31.109375 53.65625 35.269531 49.253906 36.652344 L 49.253906 40.617188 C 49.285156 40.566406 49.332031 40.503906 49.367188 40.453125 L 54.394531 33.988281 L 54.621094 33.695312 L 55.4375 32.636719 C 56.546875 31.207031 58.605469 30.898438 60.019531 32.035156 L 61.160156 32.945312 C 62.507812 34.019531 62.734375 35.96875 61.800781 37.382812 C 61.835938 38.015625 61.640625 38.683594 61.222656 39.21875 L 57.6875 43.753906 C 57.527344 43.945312 57.367188 44.109375 57.175781 44.253906 L 57.078125 44.320312 C 56.871094 44.46875 56.675781 44.566406 56.453125 44.644531 L 56.050781 44.792969 L 55.582031 45.394531 C 55.34375 45.6875 55.070312 45.929688 54.765625 46.09375 L 49.238281 53.191406 L 49.238281 62.730469 C 49.238281 64.128906 48.113281 65.28125 46.714844 65.28125 L 13.261719 65.28125 C 11.878906 65.28125 10.738281 64.144531 10.738281 62.730469 L 10.738281 13.707031 C 10.738281 12.3125 11.863281 11.15625 13.261719 11.15625 L 26.308594 11.15625 C 26.964844 9.761719 28.363281 8.800781 29.988281 8.800781 C 31.609375 8.800781 33.007812 9.761719 33.667969 11.15625 Z M 33.683594 11.140625 " fill-opacity="1" fill-rule="evenodd"/></g><path fill="#6b7f9e" d="M 13.277344 13.675781 L 46.730469 13.675781 L 46.730469 62.699219 L 13.277344 62.699219 Z M 13.277344 13.675781 " fill-opacity="1" fill-rule="evenodd"/><path fill="#ffffff" d="M 14.882812 16.324219 L 45.105469 16.324219 L 45.105469 59.984375 L 14.882812 59.984375 Z M 14.882812 16.324219 " fill-opacity="1" fill-rule="evenodd"/><path fill="#ecf0f1" d="M 25.792969 14.78125 L 34.214844 14.78125 C 35.210938 14.78125 36.027344 15.609375 36.027344 16.617188 L 36.027344 18.828125 L 23.992188 18.828125 L 23.992188 16.617188 C 23.992188 15.609375 24.8125 14.78125 25.808594 14.78125 Z M 25.792969 14.78125 " fill-opacity="1" fill-rule="evenodd"/><path fill="#c6cbd6" d="M 23.976562 17.949219 L 36.011719 17.949219 L 36.011719 18.8125 L 23.976562 18.8125 Z M 23.976562 17.949219 " fill-opacity="1" fill-rule="evenodd"/><path fill="#c6cbd6" d="M 30.003906 11.335938 C 30.871094 11.335938 31.578125 12.050781 31.578125 12.929688 L 31.578125 14.796875 L 28.445312 14.796875 L 28.445312 12.929688 C 28.445312 12.050781 29.152344 11.335938 30.019531 11.335938 Z M 30.003906 11.335938 " fill-opacity="1" fill-rule="evenodd"/><path fill="#b9c1c9" d="M 23.914062 25.503906 L 41.667969 25.503906 L 41.667969 26.285156 L 23.914062 26.285156 Z M 23.914062 51.746094 L 41.667969 51.746094 L 41.667969 52.527344 L 23.914062 52.527344 Z M 23.914062 46.5 L 41.667969 46.5 L 41.667969 47.277344 L 23.914062 47.277344 Z M 23.914062 41.25 L 41.667969 41.25 L 41.667969 42.03125 L 23.914062 42.03125 Z M 23.914062 36 L 41.667969 36 L 41.667969 36.78125 L 23.914062 36.78125 Z M 23.914062 30.753906 L 41.667969 30.753906 L 41.667969 31.535156 L 23.914062 31.535156 Z M 23.914062 30.753906 " fill-opacity="1" fill-rule="evenodd"/><path fill="#83cf8f" d="M 20.074219 24.433594 C 20.796875 24.433594 21.375 25.019531 21.375 25.75 C 21.375 26.480469 20.796875 27.066406 20.074219 27.066406 C 19.351562 27.066406 18.773438 26.480469 18.773438 25.75 C 18.773438 25.019531 19.351562 24.433594 20.074219 24.433594 Z M 20.074219 50.902344 C 20.796875 50.902344 21.375 51.488281 21.375 52.21875 C 21.375 52.949219 20.796875 53.535156 20.074219 53.535156 C 19.351562 53.535156 18.773438 52.949219 18.773438 52.21875 C 18.773438 51.488281 19.351562 50.902344 20.074219 50.902344 Z M 20.074219 45.652344 C 20.796875 45.652344 21.375 46.238281 21.375 46.96875 C 21.375 47.699219 20.796875 48.285156 20.074219 48.285156 C 19.351562 48.285156 18.773438 47.699219 18.773438 46.96875 C 18.773438 46.238281 19.351562 45.652344 20.074219 45.652344 Z M 20.074219 40.40625 C 20.796875 40.40625 21.375 40.988281 21.375 41.722656 C 21.375 42.453125 20.796875 43.039062 20.074219 43.039062 C 19.351562 43.039062 18.773438 42.453125 18.773438 41.722656 C 18.773438 40.988281 19.351562 40.40625 20.074219 40.40625 Z M 20.074219 35.074219 C 20.796875 35.074219 21.375 35.660156 21.375 36.390625 C 21.375 37.121094 20.796875 37.707031 20.074219 37.707031 C 19.351562 37.707031 18.773438 37.121094 18.773438 36.390625 C 18.773438 35.660156 19.351562 35.074219 20.074219 35.074219 Z M 20.074219 29.761719 C 20.796875 29.761719 21.375 30.347656 21.375 31.078125 C 21.375 31.808594 20.796875 32.394531 20.074219 32.394531 C 19.351562 32.394531 18.773438 31.808594 18.773438 31.078125 C 18.773438 30.347656 19.351562 29.761719 20.074219 29.761719 Z M 20.074219 29.761719 " fill-opacity="1" fill-rule="evenodd"/><path fill="#ff7069" d="M 54.296875 26.253906 C 54.296875 26.800781 54.246094 27.34375 54.140625 27.878906 C 54.035156 28.414062 53.878906 28.9375 53.671875 29.441406 C 53.464844 29.949219 53.210938 30.429688 52.910156 30.882812 C 52.609375 31.339844 52.265625 31.757812 51.882812 32.148438 C 51.5 32.535156 51.085938 32.878906 50.636719 33.183594 C 50.183594 33.488281 49.710938 33.742188 49.210938 33.953125 C 48.710938 34.164062 48.195312 34.320312 47.664062 34.429688 C 47.132812 34.535156 46.597656 34.589844 46.054688 34.589844 C 45.515625 34.589844 44.976562 34.535156 44.445312 34.429688 C 43.917969 34.320312 43.402344 34.164062 42.902344 33.953125 C 42.402344 33.742188 41.925781 33.488281 41.476562 33.183594 C 41.027344 32.878906 40.609375 32.535156 40.226562 32.148438 C 39.84375 31.757812 39.503906 31.339844 39.203125 30.882812 C 38.902344 30.429688 38.648438 29.949219 38.441406 29.441406 C 38.234375 28.9375 38.078125 28.414062 37.972656 27.878906 C 37.863281 27.34375 37.8125 26.800781 37.8125 26.253906 C 37.8125 25.707031 37.863281 25.164062 37.972656 24.625 C 38.078125 24.089844 38.234375 23.566406 38.441406 23.0625 C 38.648438 22.558594 38.902344 22.078125 39.203125 21.621094 C 39.503906 21.167969 39.84375 20.746094 40.226562 20.359375 C 40.609375 19.972656 41.027344 19.625 41.476562 19.320312 C 41.925781 19.019531 42.402344 18.761719 42.902344 18.550781 C 43.402344 18.34375 43.917969 18.183594 44.445312 18.078125 C 44.976562 17.96875 45.515625 17.917969 46.054688 17.917969 C 46.597656 17.917969 47.132812 17.96875 47.664062 18.078125 C 48.195312 18.183594 48.710938 18.34375 49.210938 18.550781 C 49.710938 18.761719 50.183594 19.019531 50.636719 19.320312 C 51.085938 19.625 51.5 19.972656 51.882812 20.359375 C 52.265625 20.746094 52.609375 21.167969 52.910156 21.621094 C 53.210938 22.078125 53.464844 22.558594 53.671875 23.0625 C 53.878906 23.566406 54.035156 24.089844 54.140625 24.625 C 54.246094 25.164062 54.296875 25.707031 54.296875 26.253906 Z M 54.296875 26.253906 " fill-opacity="1" fill-rule="nonzero"/><path fill="#83cf8f" d="M 43.726562 52.152344 L 45.652344 53.679688 L 58.71875 36.894531 L 56.804688 35.367188 Z M 43.726562 52.152344 " fill-opacity="1" fill-rule="evenodd"/><path fill="#75bd80" d="M 53.171875 44.027344 L 53.542969 43.539062 L 51.632812 42.011719 L 51.246094 42.5 Z M 53.171875 44.027344 " fill-opacity="1" fill-rule="evenodd"/><path fill="#ff7069" d="M 43.308594 55.433594 L 45.652344 53.679688 L 43.726562 52.152344 L 42.601562 54.867188 Z M 43.308594 55.433594 " fill-opacity="1" fill-rule="evenodd"/><path fill="#f7635b" d="M 43.324219 55.433594 L 45.652344 53.679688 L 45.234375 53.355469 L 43.179688 55.320312 Z M 43.324219 55.433594 " fill-opacity="1" fill-rule="evenodd"/><path fill="#ff7069" d="M 58.460938 34.035156 L 59.601562 34.945312 C 59.90625 35.1875 59.953125 35.675781 59.679688 36.019531 L 53.605469 43.816406 L 51.339844 42.011719 L 57.414062 34.214844 C 57.6875 33.875 58.15625 33.792969 58.476562 34.035156 Z M 58.460938 34.035156 " fill-opacity="1" fill-rule="evenodd"/><path fill="#f7635b" d="M 59.472656 35.855469 L 58.683594 36.863281 L 56.742188 39.347656 L 53.398438 43.65625 L 53.429688 43.6875 L 53.605469 43.816406 L 56.851562 39.640625 L 59.679688 36.019531 C 59.953125 35.675781 59.90625 35.1875 59.601562 34.945312 L 59.550781 34.898438 C 59.730469 35.171875 59.714844 35.5625 59.488281 35.855469 Z M 59.472656 35.855469 " fill-opacity="1" fill-rule="evenodd"/><path fill="#666666" d="M 41.667969 56.71875 L 41.75 56.785156 L 43.308594 55.433594 L 42.601562 54.867188 Z M 41.667969 56.71875 " fill-opacity="1" fill-rule="evenodd"/><path fill="#6b7f9e" d="M 56.597656 35.269531 L 59.230469 37.398438 C 59.3125 37.480469 59.3125 37.578125 59.246094 37.660156 L 55.710938 42.191406 L 55.617188 42.257812 L 55.164062 42.417969 C 54.941406 42.484375 54.8125 42.191406 55.070312 42.078125 L 55.472656 41.933594 L 58.84375 37.59375 L 56.339844 35.578125 L 56.578125 35.285156 Z M 56.597656 35.269531 " fill-opacity="1" fill-rule="evenodd"/><path fill="#75bd80" d="M 45.492188 53.550781 L 45.652344 53.679688 L 53.171875 44.027344 L 53.011719 43.898438 Z M 45.492188 53.550781 " fill-opacity="1" fill-rule="evenodd"/><path fill="#ffffff" d="M 50.585938 28.980469 L 44.289062 28.980469 L 41.636719 22.855469 L 39.996094 22.855469 L 39.996094 22.09375 L 42.132812 22.09375 L 44.785156 28.21875 L 50.585938 28.21875 Z M 51.792969 24.382812 L 52.097656 23.621094 L 43.773438 23.621094 L 44.078125 24.382812 Z M 44.980469 26.675781 L 45.285156 27.4375 L 50.585938 27.4375 L 50.890625 26.675781 Z M 51.488281 25.148438 L 44.367188 25.148438 L 44.671875 25.910156 L 51.179688 25.910156 Z M 50.570312 30.882812 C 50.570312 31.515625 50.054688 32.035156 49.429688 32.035156 C 48.804688 32.035156 48.289062 31.515625 48.289062 30.882812 C 48.289062 30.25 48.804688 29.730469 49.429688 29.730469 C 50.054688 29.730469 50.570312 30.25 50.570312 30.882812 Z M 46.792969 30.882812 C 46.792969 31.515625 46.28125 32.035156 45.652344 32.035156 C 45.027344 32.035156 44.511719 31.515625 44.511719 30.882812 C 44.511719 30.25 45.027344 29.730469 45.652344 29.730469 C 46.28125 29.730469 46.792969 30.25 46.792969 30.882812 Z M 46.792969 30.882812 " fill-opacity="1" fill-rule="evenodd"/></svg>